<svg width="104" height="135" viewBox="0 0 104 135" fill="none" xmlns="http://www.w3.org/2000/svg">
<g filter="url(#filter0_b_400_945)">
<mask id="path-1-inside-1_400_945" fill="white">
<path d="M12.5398 96.9483C8.5915 86.5854 8.91573 75.078 13.4417 64.946C17.9675 54.8141 26.3261 46.883 36.6874 42.8894C57.4519 34.932 82.1813 44.5334 90.7562 66.909C94.7327 77.2681 94.4258 88.7847 89.903 98.9252C85.3801 109.066 77.0119 117 66.6391 120.981C56.2663 124.963 44.7387 124.667 34.5923 120.157C24.4458 115.648 16.5115 107.295 12.535 96.9357L12.5398 96.9483ZM51.5642 79.6518C51.7704 79.2837 51.9285 79.0352 52.0482 78.7435C55.4737 71.7075 58.8932 64.6686 62.307 57.6274C62.8779 56.4652 63.3332 55.25 63.6663 53.9991C63.9448 53.0556 63.8703 52.0434 63.4565 51.1514C63.0427 50.2595 62.3182 49.5486 61.4178 49.1517C60.5446 48.6522 59.5221 48.4787 58.5322 48.6622C57.5425 48.8456 56.6495 49.3742 56.0128 50.1534C55.1559 51.2271 54.429 52.3984 53.8476 53.6426C49.9308 61.8885 46.0417 70.1381 42.1807 78.3915C42.0848 78.5944 41.9628 78.7856 41.8002 79.0792C39.8684 74.0383 37.9898 69.136 36.1111 64.2336C35.8251 63.4769 35.479 62.7445 35.0764 62.0431C34.5444 60.963 33.6128 60.1323 32.4783 59.7269C31.3437 59.3214 30.0955 59.3728 28.9976 59.8703C26.6061 60.7867 25.5227 62.7557 26.0465 65.3878C26.2688 66.4401 26.5773 67.4724 26.9689 68.4741C32.1011 81.8664 37.2324 95.2565 42.363 108.644C42.7534 109.706 43.242 110.728 43.8227 111.698C45.1405 113.853 47.0679 114.502 49.4654 113.677C51.8628 112.852 53.0031 111.107 52.7489 108.726C52.6431 107.791 52.4226 106.873 52.0925 105.993C50.0085 100.555 47.9246 95.1168 45.8407 89.6789L45.4905 88.7652L46.1429 89.0137C55.6673 93.0337 65.1913 97.0464 74.7151 101.052C75.853 101.542 77.0506 101.88 78.2769 102.057C79.2636 102.182 80.2641 101.981 81.1269 101.486C81.9896 100.991 82.6677 100.229 83.0583 99.3146C83.4706 98.4536 83.5855 97.4806 83.3853 96.5478C83.1849 95.6149 82.6806 94.7752 81.9513 94.1599C81.0371 93.3664 80.0146 92.7071 78.9141 92.2018C71.0043 88.5556 63.1114 84.9536 55.2138 81.339C54.0598 80.82 52.8961 80.2759 51.5642 79.6518Z"/>
<path d="M63.7047 36.801C54.9424 34.6475 46.3415 33.7677 37.8018 37.6339C40.9904 34.8392 44.7373 32.7311 48.7935 31.4501C47.2773 30.6958 46.75 29.3576 46.0871 28.1773C44.4795 25.1369 41.7275 22.8414 38.4022 21.7671C36.4112 21.1346 34.4775 20.3469 32.6196 19.4116C28.6571 17.3336 26.7197 13.4904 27.4127 9.61419C27.6903 8.03843 28.3164 6.53521 29.2466 5.21061C30.1768 3.88601 31.3887 2.77218 32.7966 1.94782C37.7741 -1.13257 43.4279 0.318442 46.318 5.24508C47.3243 6.93016 47.7725 8.88694 47.602 10.8508C47.4139 13.0379 47.1636 15.2206 46.8509 17.3988C46.5159 19.746 47.0343 21.667 49.1394 23.0294C51.0004 24.2666 52.802 25.5757 54.6345 26.8519C55.0428 27.1406 55.4385 27.4339 55.9614 27.8131C55.1293 27.9408 54.3401 28.2726 53.6674 28.7775C52.9949 29.2823 52.4607 29.9439 52.1153 30.7001C53.013 30.6175 53.7508 30.7799 54.4716 30.1786C54.7689 29.9092 55.117 29.6998 55.4954 29.5625C55.8739 29.4251 56.2754 29.3629 56.6759 29.3792C57.0766 29.3954 57.4682 29.4901 57.8283 29.6574C58.1881 29.8248 58.5091 30.0613 58.7722 30.3536C59.3665 30.9948 60.0721 30.9223 60.9269 31.0116C60.7062 30.3477 60.3369 29.7429 59.8456 29.2408C59.3543 28.7388 58.7532 28.3518 58.0859 28.1081C58.623 27.747 59.0671 27.4284 59.528 27.1528C67.2617 22.3571 75.2827 18.0303 83.5446 14.1971C87.3972 12.4453 91.3035 10.814 95.5021 10.0599C98.8725 9.47491 100.725 10.4253 102.223 13.4054C103.126 15.2498 103.079 15.2607 101.184 16.114C96.7412 18.1065 92.3154 20.1629 87.8818 22.1799C82.8996 24.4519 77.9125 26.7117 72.9208 28.959C70.7732 29.9304 68.6209 30.8893 66.49 31.9038C66.0766 32.1267 65.7406 32.4676 65.5279 32.8803C64.8479 34.1372 64.2956 35.444 63.7047 36.801ZM31.3642 13.2367C31.8241 14.4218 32.6346 15.4404 33.6932 16.1639C34.752 16.8873 36.0115 17.2832 37.3129 17.3016C38.614 17.3201 39.8989 16.9601 41.0048 16.2673C42.1108 15.5744 42.9885 14.5798 43.527 13.4088C44.0656 12.2378 44.2407 10.9431 44.0307 9.68805C43.8205 8.43301 43.2344 7.27389 42.3463 6.35706C41.4583 5.44016 40.308 4.80671 39.0408 4.53658C37.7736 4.26646 36.4463 4.37178 35.2263 4.83928C33.5969 5.47667 32.2773 6.71236 31.5529 8.27914C30.8283 9.84597 30.7572 11.618 31.3548 13.2121L31.3642 13.2367Z"/>
<path d="M36.5983 131.862C37.2075 130.397 37.7597 129.018 38.3655 127.671C38.4409 127.572 38.5387 127.494 38.6507 127.443C38.7627 127.393 38.8857 127.371 39.0091 127.38C41.9839 127.913 44.9645 128.459 47.9505 129.021C48.138 129.059 48.4433 129.241 48.4618 129.38C48.6669 130.927 48.8248 132.478 49.0096 134.135C44.8141 133.929 40.643 133.165 36.5983 131.862Z"/>
<path d="M26.2546 121.592C25.6603 123.134 25.0347 124.785 24.3798 126.513C20.5465 123.867 17.0134 120.719 13.8689 117.146L17.8222 114.097L26.2546 121.592Z"/>
<path d="M89.4707 46.8345C88.113 47.8508 86.8612 48.8183 85.5712 49.7434C85.4503 49.8302 85.092 49.6995 84.9316 49.5494C82.2967 47.1372 79.6753 44.7031 77.0331 42.2529L78.8432 37.3975C82.7191 40.0603 86.2915 43.2326 89.4707 46.8345Z"/>
<path d="M103.294 82.905C103.333 87.6568 102.811 92.3492 101.739 96.867L97.0597 94.5113C97.4706 90.7987 97.8924 87.0573 98.324 83.2473L103.294 82.905Z"/>
<path d="M64.4752 132.132C64.4134 130.886 64.3384 129.728 64.3138 128.563C64.3373 128.469 64.3872 128.378 64.459 128.299C64.5307 128.221 64.6221 128.157 64.7244 128.113C67.5305 127.295 70.2709 126.245 72.9047 124.978C73.0187 124.954 73.1342 124.953 73.2412 124.976C73.3483 125 73.4437 125.046 73.5191 125.112C74.1892 125.882 74.7948 126.693 75.4686 127.472C75.7068 127.761 75.6004 127.973 75.2205 128.119C73.2518 128.961 71.2918 129.845 69.2991 130.625C67.996 131.124 66.6451 131.499 65.3127 131.921C65.036 132.003 64.7565 132.074 64.4752 132.132Z"/>
<path d="M12.9136 56.2654L8.89898 54.0034C10.5414 50.5709 12.5949 47.4769 15.0068 44.8002C15.5525 45.6189 16.0666 46.3703 16.5653 47.1419C16.9385 47.7229 17.5718 48.3921 17.596 48.9693C17.6199 49.5464 16.9634 49.9357 16.6272 50.4047C15.4715 52.1893 14.3273 53.9789 13.1948 55.774C13.0817 55.9475 12.991 56.1344 12.9136 56.2654Z"/>
<path d="M5.82787 105.898C3.7789 102.438 2.34024 98.6843 1.55216 94.741C3.34724 94.4722 5.05949 94.2017 6.77252 93.9975C6.96225 93.978 7.23246 94.34 7.32356 94.5778C7.9006 96.2122 8.39657 97.8709 9.00226 99.4943C9.37336 100.463 9.85202 101.39 10.3212 102.314C10.4568 102.668 10.4861 102.916 10.0471 103.164C8.69389 104.029 7.33523 104.922 5.82787 105.898Z"/>
<path d="M0.051372 81.0894C0.0449405 76.2805 0.603904 71.5312 1.71503 66.9547L5.03703 68.6422C6.55966 69.4214 6.48219 69.4105 6.24921 71.0977C5.87632 73.9499 5.55157 76.8321 5.29895 79.7112C5.23142 80.4913 5.02166 80.7664 4.29582 80.785C2.92534 80.8236 1.56078 80.9734 0.051372 81.0894Z"/>
<path d="M86.7449 119.674C85.7416 118.366 84.7966 117.167 83.9076 115.924C83.7924 115.771 83.9032 115.342 84.059 115.137C86.2783 112.593 88.5213 110.063 90.7881 107.545C90.8799 107.455 90.991 107.384 91.1132 107.337C91.2354 107.29 91.3654 107.269 91.4938 107.275C93.036 107.815 94.5576 108.406 96.2094 109.021C93.5375 112.905 90.3562 116.486 86.7449 119.674Z"/>
<path d="M97.6138 57.9281C98.2001 58.9272 98.7226 59.9581 99.1793 61.0171C100.125 63.4849 100.888 66.0163 101.739 68.5203C101.934 69.029 101.745 69.2493 101.062 69.3297C99.737 69.4888 98.3991 69.6796 97.0882 69.9404C96.4066 70.0675 96.1461 69.8857 95.9727 69.3687C95.2237 67.154 94.4144 64.9557 93.6269 62.7492C93.5787 62.5801 93.5158 62.4158 93.4386 62.2578C92.7982 61.0413 92.7959 61.0354 94.1706 60.1398C95.2231 59.4211 96.3447 58.7097 97.6138 57.9281Z"/>
</mask>
<path d="M12.5398 96.9483C8.5915 86.5854 8.91573 75.078 13.4417 64.946C17.9675 54.8141 26.3261 46.883 36.6874 42.8894C57.4519 34.932 82.1813 44.5334 90.7562 66.909C94.7327 77.2681 94.4258 88.7847 89.903 98.9252C85.3801 109.066 77.0119 117 66.6391 120.981C56.2663 124.963 44.7387 124.667 34.5923 120.157C24.4458 115.648 16.5115 107.295 12.535 96.9357L12.5398 96.9483ZM51.5642 79.6518C51.7704 79.2837 51.9285 79.0352 52.0482 78.7435C55.4737 71.7075 58.8932 64.6686 62.307 57.6274C62.8779 56.4652 63.3332 55.25 63.6663 53.9991C63.9448 53.0556 63.8703 52.0434 63.4565 51.1514C63.0427 50.2595 62.3182 49.5486 61.4178 49.1517C60.5446 48.6522 59.5221 48.4787 58.5322 48.6622C57.5425 48.8456 56.6495 49.3742 56.0128 50.1534C55.1559 51.2271 54.429 52.3984 53.8476 53.6426C49.9308 61.8885 46.0417 70.1381 42.1807 78.3915C42.0848 78.5944 41.9628 78.7856 41.8002 79.0792C39.8684 74.0383 37.9898 69.136 36.1111 64.2336C35.8251 63.4769 35.479 62.7445 35.0764 62.0431C34.5444 60.963 33.6128 60.1323 32.4783 59.7269C31.3437 59.3214 30.0955 59.3728 28.9976 59.8703C26.6061 60.7867 25.5227 62.7557 26.0465 65.3878C26.2688 66.4401 26.5773 67.4724 26.9689 68.4741C32.1011 81.8664 37.2324 95.2565 42.363 108.644C42.7534 109.706 43.242 110.728 43.8227 111.698C45.1405 113.853 47.0679 114.502 49.4654 113.677C51.8628 112.852 53.0031 111.107 52.7489 108.726C52.6431 107.791 52.4226 106.873 52.0925 105.993C50.0085 100.555 47.9246 95.1168 45.8407 89.6789L45.4905 88.7652L46.1429 89.0137C55.6673 93.0337 65.1913 97.0464 74.7151 101.052C75.853 101.542 77.0506 101.88 78.2769 102.057C79.2636 102.182 80.2641 101.981 81.1269 101.486C81.9896 100.991 82.6677 100.229 83.0583 99.3146C83.4706 98.4536 83.5855 97.4806 83.3853 96.5478C83.1849 95.6149 82.6806 94.7752 81.9513 94.1599C81.0371 93.3664 80.0146 92.7071 78.9141 92.2018C71.0043 88.5556 63.1114 84.9536 55.2138 81.339C54.0598 80.82 52.8961 80.2759 51.5642 79.6518Z" fill="white" fill-opacity="0.05"/>
<path d="M63.7047 36.801C54.9424 34.6475 46.3415 33.7677 37.8018 37.6339C40.9904 34.8392 44.7373 32.7311 48.7935 31.4501C47.2773 30.6958 46.75 29.3576 46.0871 28.1773C44.4795 25.1369 41.7275 22.8414 38.4022 21.7671C36.4112 21.1346 34.4775 20.3469 32.6196 19.4116C28.6571 17.3336 26.7197 13.4904 27.4127 9.61419C27.6903 8.03843 28.3164 6.53521 29.2466 5.21061C30.1768 3.88601 31.3887 2.77218 32.7966 1.94782C37.7741 -1.13257 43.4279 0.318442 46.318 5.24508C47.3243 6.93016 47.7725 8.88694 47.602 10.8508C47.4139 13.0379 47.1636 15.2206 46.8509 17.3988C46.5159 19.746 47.0343 21.667 49.1394 23.0294C51.0004 24.2666 52.802 25.5757 54.6345 26.8519C55.0428 27.1406 55.4385 27.4339 55.9614 27.8131C55.1293 27.9408 54.3401 28.2726 53.6674 28.7775C52.9949 29.2823 52.4607 29.9439 52.1153 30.7001C53.013 30.6175 53.7508 30.7799 54.4716 30.1786C54.7689 29.9092 55.117 29.6998 55.4954 29.5625C55.8739 29.4251 56.2754 29.3629 56.6759 29.3792C57.0766 29.3954 57.4682 29.4901 57.8283 29.6574C58.1881 29.8248 58.5091 30.0613 58.7722 30.3536C59.3665 30.9948 60.0721 30.9223 60.9269 31.0116C60.7062 30.3477 60.3369 29.7429 59.8456 29.2408C59.3543 28.7388 58.7532 28.3518 58.0859 28.1081C58.623 27.747 59.0671 27.4284 59.528 27.1528C67.2617 22.3571 75.2827 18.0303 83.5446 14.1971C87.3972 12.4453 91.3035 10.814 95.5021 10.0599C98.8725 9.47491 100.725 10.4253 102.223 13.4054C103.126 15.2498 103.079 15.2607 101.184 16.114C96.7412 18.1065 92.3154 20.1629 87.8818 22.1799C82.8996 24.4519 77.9125 26.7117 72.9208 28.959C70.7732 29.9304 68.6209 30.8893 66.49 31.9038C66.0766 32.1267 65.7406 32.4676 65.5279 32.8803C64.8479 34.1372 64.2956 35.444 63.7047 36.801ZM31.3642 13.2367C31.8241 14.4218 32.6346 15.4404 33.6932 16.1639C34.752 16.8873 36.0115 17.2832 37.3129 17.3016C38.614 17.3201 39.8989 16.9601 41.0048 16.2673C42.1108 15.5744 42.9885 14.5798 43.527 13.4088C44.0656 12.2378 44.2407 10.9431 44.0307 9.68805C43.8205 8.43301 43.2344 7.27389 42.3463 6.35706C41.4583 5.44016 40.308 4.80671 39.0408 4.53658C37.7736 4.26646 36.4463 4.37178 35.2263 4.83928C33.5969 5.47667 32.2773 6.71236 31.5529 8.27914C30.8283 9.84597 30.7572 11.618 31.3548 13.2121L31.3642 13.2367Z" fill="white" fill-opacity="0.05"/>
<path d="M36.5983 131.862C37.2075 130.397 37.7597 129.018 38.3655 127.671C38.4409 127.572 38.5387 127.494 38.6507 127.443C38.7627 127.393 38.8857 127.371 39.0091 127.38C41.9839 127.913 44.9645 128.459 47.9505 129.021C48.138 129.059 48.4433 129.241 48.4618 129.38C48.6669 130.927 48.8248 132.478 49.0096 134.135C44.8141 133.929 40.643 133.165 36.5983 131.862Z" fill="white" fill-opacity="0.05"/>
<path d="M26.2546 121.592C25.6603 123.134 25.0347 124.785 24.3798 126.513C20.5465 123.867 17.0134 120.719 13.8689 117.146L17.8222 114.097L26.2546 121.592Z" fill="white" fill-opacity="0.05"/>
<path d="M89.4707 46.8345C88.113 47.8508 86.8612 48.8183 85.5712 49.7434C85.4503 49.8302 85.092 49.6995 84.9316 49.5494C82.2967 47.1372 79.6753 44.7031 77.0331 42.2529L78.8432 37.3975C82.7191 40.0603 86.2915 43.2326 89.4707 46.8345Z" fill="white" fill-opacity="0.05"/>
<path d="M103.294 82.905C103.333 87.6568 102.811 92.3492 101.739 96.867L97.0597 94.5113C97.4706 90.7987 97.8924 87.0573 98.324 83.2473L103.294 82.905Z" fill="white" fill-opacity="0.05"/>
<path d="M64.4752 132.132C64.4134 130.886 64.3384 129.728 64.3138 128.563C64.3373 128.469 64.3872 128.378 64.459 128.299C64.5307 128.221 64.6221 128.157 64.7244 128.113C67.5305 127.295 70.2709 126.245 72.9047 124.978C73.0187 124.954 73.1342 124.953 73.2412 124.976C73.3483 125 73.4437 125.046 73.5191 125.112C74.1892 125.882 74.7948 126.693 75.4686 127.472C75.7068 127.761 75.6004 127.973 75.2205 128.119C73.2518 128.961 71.2918 129.845 69.2991 130.625C67.996 131.124 66.6451 131.499 65.3127 131.921C65.036 132.003 64.7565 132.074 64.4752 132.132Z" fill="white" fill-opacity="0.05"/>
<path d="M12.9136 56.2654L8.89898 54.0034C10.5414 50.5709 12.5949 47.4769 15.0068 44.8002C15.5525 45.6189 16.0666 46.3703 16.5653 47.1419C16.9385 47.7229 17.5718 48.3921 17.596 48.9693C17.6199 49.5464 16.9634 49.9357 16.6272 50.4047C15.4715 52.1893 14.3273 53.9789 13.1948 55.774C13.0817 55.9475 12.991 56.1344 12.9136 56.2654Z" fill="white" fill-opacity="0.05"/>
<path d="M5.82787 105.898C3.7789 102.438 2.34024 98.6843 1.55216 94.741C3.34724 94.4722 5.05949 94.2017 6.77252 93.9975C6.96225 93.978 7.23246 94.34 7.32356 94.5778C7.9006 96.2122 8.39657 97.8709 9.00226 99.4943C9.37336 100.463 9.85202 101.39 10.3212 102.314C10.4568 102.668 10.4861 102.916 10.0471 103.164C8.69389 104.029 7.33523 104.922 5.82787 105.898Z" fill="white" fill-opacity="0.05"/>
<path d="M0.051372 81.0894C0.0449405 76.2805 0.603904 71.5312 1.71503 66.9547L5.03703 68.6422C6.55966 69.4214 6.48219 69.4105 6.24921 71.0977C5.87632 73.9499 5.55157 76.8321 5.29895 79.7112C5.23142 80.4913 5.02166 80.7664 4.29582 80.785C2.92534 80.8236 1.56078 80.9734 0.051372 81.0894Z" fill="white" fill-opacity="0.05"/>
<path d="M86.7449 119.674C85.7416 118.366 84.7966 117.167 83.9076 115.924C83.7924 115.771 83.9032 115.342 84.059 115.137C86.2783 112.593 88.5213 110.063 90.7881 107.545C90.8799 107.455 90.991 107.384 91.1132 107.337C91.2354 107.29 91.3654 107.269 91.4938 107.275C93.036 107.815 94.5576 108.406 96.2094 109.021C93.5375 112.905 90.3562 116.486 86.7449 119.674Z" fill="white" fill-opacity="0.05"/>
<path d="M97.6138 57.9281C98.2001 58.9272 98.7226 59.9581 99.1793 61.0171C100.125 63.4849 100.888 66.0163 101.739 68.5203C101.934 69.029 101.745 69.2493 101.062 69.3297C99.737 69.4888 98.3991 69.6796 97.0882 69.9404C96.4066 70.0675 96.1461 69.8857 95.9727 69.3687C95.2237 67.154 94.4144 64.9557 93.6269 62.7492C93.5787 62.5801 93.5158 62.4158 93.4386 62.2578C92.7982 61.0413 92.7959 61.0354 94.1706 60.1398C95.2231 59.4211 96.3447 58.7097 97.6138 57.9281Z" fill="white" fill-opacity="0.05"/>
<path d="M12.5398 96.9483C8.5915 86.5854 8.91573 75.078 13.4417 64.946C17.9675 54.8141 26.3261 46.883 36.6874 42.8894C57.4519 34.932 82.1813 44.5334 90.7562 66.909C94.7327 77.2681 94.4258 88.7847 89.903 98.9252C85.3801 109.066 77.0119 117 66.6391 120.981C56.2663 124.963 44.7387 124.667 34.5923 120.157C24.4458 115.648 16.5115 107.295 12.535 96.9357L12.5398 96.9483ZM51.5642 79.6518C51.7704 79.2837 51.9285 79.0352 52.0482 78.7435C55.4737 71.7075 58.8932 64.6686 62.307 57.6274C62.8779 56.4652 63.3332 55.25 63.6663 53.9991C63.9448 53.0556 63.8703 52.0434 63.4565 51.1514C63.0427 50.2595 62.3182 49.5486 61.4178 49.1517C60.5446 48.6522 59.5221 48.4787 58.5322 48.6622C57.5425 48.8456 56.6495 49.3742 56.0128 50.1534C55.1559 51.2271 54.429 52.3984 53.8476 53.6426C49.9308 61.8885 46.0417 70.1381 42.1807 78.3915C42.0848 78.5944 41.9628 78.7856 41.8002 79.0792C39.8684 74.0383 37.9898 69.136 36.1111 64.2336C35.8251 63.4769 35.479 62.7445 35.0764 62.0431C34.5444 60.963 33.6128 60.1323 32.4783 59.7269C31.3437 59.3214 30.0955 59.3728 28.9976 59.8703C26.6061 60.7867 25.5227 62.7557 26.0465 65.3878C26.2688 66.4401 26.5773 67.4724 26.9689 68.4741C32.1011 81.8664 37.2324 95.2565 42.363 108.644C42.7534 109.706 43.242 110.728 43.8227 111.698C45.1405 113.853 47.0679 114.502 49.4654 113.677C51.8628 112.852 53.0031 111.107 52.7489 108.726C52.6431 107.791 52.4226 106.873 52.0925 105.993C50.0085 100.555 47.9246 95.1168 45.8407 89.6789L45.4905 88.7652L46.1429 89.0137C55.6673 93.0337 65.1913 97.0464 74.7151 101.052C75.853 101.542 77.0506 101.88 78.2769 102.057C79.2636 102.182 80.2641 101.981 81.1269 101.486C81.9896 100.991 82.6677 100.229 83.0583 99.3146C83.4706 98.4536 83.5855 97.4806 83.3853 96.5478C83.1849 95.6149 82.6806 94.7752 81.9513 94.1599C81.0371 93.3664 80.0146 92.7071 78.9141 92.2018C71.0043 88.5556 63.1114 84.9536 55.2138 81.339C54.0598 80.82 52.8961 80.2759 51.5642 79.6518Z" stroke="#0DC3A2" stroke-width="2" mask="url(#path-1-inside-1_400_945)"/>
<path d="M63.7047 36.801C54.9424 34.6475 46.3415 33.7677 37.8018 37.6339C40.9904 34.8392 44.7373 32.7311 48.7935 31.4501C47.2773 30.6958 46.75 29.3576 46.0871 28.1773C44.4795 25.1369 41.7275 22.8414 38.4022 21.7671C36.4112 21.1346 34.4775 20.3469 32.6196 19.4116C28.6571 17.3336 26.7197 13.4904 27.4127 9.61419C27.6903 8.03843 28.3164 6.53521 29.2466 5.21061C30.1768 3.88601 31.3887 2.77218 32.7966 1.94782C37.7741 -1.13257 43.4279 0.318442 46.318 5.24508C47.3243 6.93016 47.7725 8.88694 47.602 10.8508C47.4139 13.0379 47.1636 15.2206 46.8509 17.3988C46.5159 19.746 47.0343 21.667 49.1394 23.0294C51.0004 24.2666 52.802 25.5757 54.6345 26.8519C55.0428 27.1406 55.4385 27.4339 55.9614 27.8131C55.1293 27.9408 54.3401 28.2726 53.6674 28.7775C52.9949 29.2823 52.4607 29.9439 52.1153 30.7001C53.013 30.6175 53.7508 30.7799 54.4716 30.1786C54.7689 29.9092 55.117 29.6998 55.4954 29.5625C55.8739 29.4251 56.2754 29.3629 56.6759 29.3792C57.0766 29.3954 57.4682 29.4901 57.8283 29.6574C58.1881 29.8248 58.5091 30.0613 58.7722 30.3536C59.3665 30.9948 60.0721 30.9223 60.9269 31.0116C60.7062 30.3477 60.3369 29.7429 59.8456 29.2408C59.3543 28.7388 58.7532 28.3518 58.0859 28.1081C58.623 27.747 59.0671 27.4284 59.528 27.1528C67.2617 22.3571 75.2827 18.0303 83.5446 14.1971C87.3972 12.4453 91.3035 10.814 95.5021 10.0599C98.8725 9.47491 100.725 10.4253 102.223 13.4054C103.126 15.2498 103.079 15.2607 101.184 16.114C96.7412 18.1065 92.3154 20.1629 87.8818 22.1799C82.8996 24.4519 77.9125 26.7117 72.9208 28.959C70.7732 29.9304 68.6209 30.8893 66.49 31.9038C66.0766 32.1267 65.7406 32.4676 65.5279 32.8803C64.8479 34.1372 64.2956 35.444 63.7047 36.801ZM31.3642 13.2367C31.8241 14.4218 32.6346 15.4404 33.6932 16.1639C34.752 16.8873 36.0115 17.2832 37.3129 17.3016C38.614 17.3201 39.8989 16.9601 41.0048 16.2673C42.1108 15.5744 42.9885 14.5798 43.527 13.4088C44.0656 12.2378 44.2407 10.9431 44.0307 9.68805C43.8205 8.43301 43.2344 7.27389 42.3463 6.35706C41.4583 5.44016 40.308 4.80671 39.0408 4.53658C37.7736 4.26646 36.4463 4.37178 35.2263 4.83928C33.5969 5.47667 32.2773 6.71236 31.5529 8.27914C30.8283 9.84597 30.7572 11.618 31.3548 13.2121L31.3642 13.2367Z" stroke="#0DC3A2" stroke-width="2" mask="url(#path-1-inside-1_400_945)"/>
<path d="M36.5983 131.862C37.2075 130.397 37.7597 129.018 38.3655 127.671C38.4409 127.572 38.5387 127.494 38.6507 127.443C38.7627 127.393 38.8857 127.371 39.0091 127.38C41.9839 127.913 44.9645 128.459 47.9505 129.021C48.138 129.059 48.4433 129.241 48.4618 129.38C48.6669 130.927 48.8248 132.478 49.0096 134.135C44.8141 133.929 40.643 133.165 36.5983 131.862Z" stroke="#0DC3A2" stroke-width="2" mask="url(#path-1-inside-1_400_945)"/>
<path d="M26.2546 121.592C25.6603 123.134 25.0347 124.785 24.3798 126.513C20.5465 123.867 17.0134 120.719 13.8689 117.146L17.8222 114.097L26.2546 121.592Z" stroke="#0DC3A2" stroke-width="2" mask="url(#path-1-inside-1_400_945)"/>
<path d="M89.4707 46.8345C88.113 47.8508 86.8612 48.8183 85.5712 49.7434C85.4503 49.8302 85.092 49.6995 84.9316 49.5494C82.2967 47.1372 79.6753 44.7031 77.0331 42.2529L78.8432 37.3975C82.7191 40.0603 86.2915 43.2326 89.4707 46.8345Z" stroke="#0DC3A2" stroke-width="2" mask="url(#path-1-inside-1_400_945)"/>
<path d="M103.294 82.905C103.333 87.6568 102.811 92.3492 101.739 96.867L97.0597 94.5113C97.4706 90.7987 97.8924 87.0573 98.324 83.2473L103.294 82.905Z" stroke="#0DC3A2" stroke-width="2" mask="url(#path-1-inside-1_400_945)"/>
<path d="M64.4752 132.132C64.4134 130.886 64.3384 129.728 64.3138 128.563C64.3373 128.469 64.3872 128.378 64.459 128.299C64.5307 128.221 64.6221 128.157 64.7244 128.113C67.5305 127.295 70.2709 126.245 72.9047 124.978C73.0187 124.954 73.1342 124.953 73.2412 124.976C73.3483 125 73.4437 125.046 73.5191 125.112C74.1892 125.882 74.7948 126.693 75.4686 127.472C75.7068 127.761 75.6004 127.973 75.2205 128.119C73.2518 128.961 71.2918 129.845 69.2991 130.625C67.996 131.124 66.6451 131.499 65.3127 131.921C65.036 132.003 64.7565 132.074 64.4752 132.132Z" stroke="#0DC3A2" stroke-width="2" mask="url(#path-1-inside-1_400_945)"/>
<path d="M12.9136 56.2654L8.89898 54.0034C10.5414 50.5709 12.5949 47.4769 15.0068 44.8002C15.5525 45.6189 16.0666 46.3703 16.5653 47.1419C16.9385 47.7229 17.5718 48.3921 17.596 48.9693C17.6199 49.5464 16.9634 49.9357 16.6272 50.4047C15.4715 52.1893 14.3273 53.9789 13.1948 55.774C13.0817 55.9475 12.991 56.1344 12.9136 56.2654Z" stroke="#0DC3A2" stroke-width="2" mask="url(#path-1-inside-1_400_945)"/>
<path d="M5.82787 105.898C3.7789 102.438 2.34024 98.6843 1.55216 94.741C3.34724 94.4722 5.05949 94.2017 6.77252 93.9975C6.96225 93.978 7.23246 94.34 7.32356 94.5778C7.9006 96.2122 8.39657 97.8709 9.00226 99.4943C9.37336 100.463 9.85202 101.39 10.3212 102.314C10.4568 102.668 10.4861 102.916 10.0471 103.164C8.69389 104.029 7.33523 104.922 5.82787 105.898Z" stroke="#0DC3A2" stroke-width="2" mask="url(#path-1-inside-1_400_945)"/>
<path d="M0.051372 81.0894C0.0449405 76.2805 0.603904 71.5312 1.71503 66.9547L5.03703 68.6422C6.55966 69.4214 6.48219 69.4105 6.24921 71.0977C5.87632 73.9499 5.55157 76.8321 5.29895 79.7112C5.23142 80.4913 5.02166 80.7664 4.29582 80.785C2.92534 80.8236 1.56078 80.9734 0.051372 81.0894Z" stroke="#0DC3A2" stroke-width="2" mask="url(#path-1-inside-1_400_945)"/>
<path d="M86.7449 119.674C85.7416 118.366 84.7966 117.167 83.9076 115.924C83.7924 115.771 83.9032 115.342 84.059 115.137C86.2783 112.593 88.5213 110.063 90.7881 107.545C90.8799 107.455 90.991 107.384 91.1132 107.337C91.2354 107.29 91.3654 107.269 91.4938 107.275C93.036 107.815 94.5576 108.406 96.2094 109.021C93.5375 112.905 90.3562 116.486 86.7449 119.674Z" stroke="#0DC3A2" stroke-width="2" mask="url(#path-1-inside-1_400_945)"/>
<path d="M97.6138 57.9281C98.2001 58.9272 98.7226 59.9581 99.1793 61.0171C100.125 63.4849 100.888 66.0163 101.739 68.5203C101.934 69.029 101.745 69.2493 101.062 69.3297C99.737 69.4888 98.3991 69.6796 97.0882 69.9404C96.4066 70.0675 96.1461 69.8857 95.9727 69.3687C95.2237 67.154 94.4144 64.9557 93.6269 62.7492C93.5787 62.5801 93.5158 62.4158 93.4386 62.2578C92.7982 61.0413 92.7959 61.0354 94.1706 60.1398C95.2231 59.4211 96.3447 58.7097 97.6138 57.9281Z" stroke="#0DC3A2" stroke-width="2" mask="url(#path-1-inside-1_400_945)"/>
</g>
<defs>
<filter id="filter0_b_400_945" x="-49.9487" y="-49.6667" width="203.245" height="233.802" filterUnits="userSpaceOnUse" color-interpolation-filters="sRGB">
<feFlood flood-opacity="0" result="BackgroundImageFix"/>
<feGaussianBlur in="BackgroundImageFix" stdDeviation="25"/>
<feComposite in2="SourceAlpha" operator="in" result="effect1_backgroundBlur_400_945"/>
<feBlend mode="normal" in="SourceGraphic" in2="effect1_backgroundBlur_400_945" result="shape"/>
</filter>
</defs>
</svg>
