<svg width="69" height="109" viewBox="0 0 69 109" fill="none" xmlns="http://www.w3.org/2000/svg">
<g filter="url(#filter0_b_304_3709)">
<mask id="path-1-inside-1_304_3709" fill="white">
<path d="M11.848 79.9912C8.17897 71.7529 7.92815 62.3943 11.1506 53.9648C14.3729 45.5354 20.8059 38.7218 29.041 35.0161C45.5465 27.6269 66.0559 34.3186 74.0184 52.1047C77.7102 60.3388 77.9755 69.704 74.756 78.1402C71.5364 86.5765 65.0958 93.3929 56.8508 97.0894C48.6059 100.786 39.2321 101.06 30.7917 97.852C22.3512 94.6436 15.5353 88.2152 11.8435 79.9812L11.848 79.9912ZM42.7635 64.2029C42.9145 63.8948 43.0317 63.6859 43.1159 63.4437C45.5831 57.5774 48.0453 51.709 50.5028 45.8389C50.9144 44.8697 51.2299 43.8626 51.4444 42.832C51.6284 42.0534 51.5227 41.2349 51.1468 40.529C50.771 39.8233 50.1509 39.2784 49.4021 38.9963C48.6707 38.6297 47.8327 38.5345 47.0371 38.7277C46.2416 38.9209 45.5401 39.39 45.0579 40.0512C44.4101 40.9613 43.8722 41.9449 43.4556 42.9812C40.6435 49.8519 37.8541 56.7244 35.0876 63.5987C35.0189 63.7678 34.9284 63.9285 34.8094 64.1742C33.0156 60.1672 31.2711 56.2704 29.5265 52.3735C29.2605 51.7719 28.9468 51.1927 28.5885 50.641C28.1083 49.7878 27.3147 49.1549 26.3753 48.8764C25.4359 48.5978 24.4247 48.6953 23.5554 49.1483C21.6545 49.9993 20.8627 51.6466 21.4056 53.7604C21.6331 54.6049 21.9297 55.4294 22.2924 56.2253C27.0581 66.8707 31.8231 77.5143 36.5873 88.1563C36.9517 89.0005 37.3941 89.8089 37.909 90.5709C39.0753 92.2615 40.6694 92.7021 42.5792 91.9253C44.4891 91.1485 45.3371 89.6806 45.0243 87.7582C44.8967 87.0041 44.6766 86.2686 44.3692 85.5683C42.4341 81.2458 40.499 76.9232 38.5638 72.6007L38.2387 71.8744L38.7796 72.0471C46.6931 74.8858 54.6059 77.7187 62.5183 80.5458C63.4642 80.8927 64.4517 81.1135 65.4554 81.2031C66.2622 81.2598 67.0656 81.052 67.7441 80.6116C68.4225 80.1713 68.939 79.5219 69.2154 78.7623C69.5118 78.0447 69.5616 77.2495 69.3573 76.501C69.153 75.7524 68.7059 75.0931 68.0862 74.6261C67.3084 74.0226 66.4487 73.5329 65.5325 73.1718C58.9468 70.5644 52.3768 67.9922 45.8024 65.4099C44.8421 65.04 43.8729 64.6502 42.7635 64.2029Z"/>
<path d="M50.7073 28.8653C43.496 27.5081 36.4727 27.1779 29.7111 30.6988C32.1754 28.287 35.1238 26.4078 38.3602 25.1865C37.0954 24.6417 36.6074 23.5786 36.0163 22.6498C34.5751 20.2528 32.2379 18.5118 29.4897 17.788C27.8448 17.3633 26.2394 16.8101 24.689 16.1336C21.3786 14.6233 19.6337 11.5892 20.0233 8.41066C20.1783 7.11873 20.6195 5.87013 21.3156 4.75299C22.0118 3.63584 22.9461 2.67726 24.0525 1.94497C27.9567 -0.778711 32.6124 0.14694 35.1793 4.0183C36.0717 5.34165 36.5231 6.91054 36.4724 8.5128C36.4173 10.2972 36.3116 12.0807 36.155 13.8635C35.9879 15.7843 36.4946 17.3211 38.2649 18.3333C39.8313 19.2547 41.3527 20.2373 42.8977 21.1917C43.2422 21.4079 43.5765 21.6284 44.0181 21.9129C43.3481 22.0538 42.7221 22.3584 42.1984 22.7985C41.6749 23.2385 41.2707 23.7995 41.024 24.429C41.7493 24.3218 42.3556 24.4208 42.914 23.9003C43.1434 23.6682 43.4167 23.4827 43.7179 23.3542C44.0191 23.2258 44.3423 23.1573 44.6682 23.1527C44.9943 23.148 45.3166 23.2073 45.6164 23.3271C45.9161 23.4469 46.1873 23.6247 46.414 23.8503C46.9252 24.3444 47.4949 24.254 48.193 24.2883C47.9842 23.7591 47.6572 23.2845 47.2359 22.8987C46.8145 22.513 46.3092 22.2256 45.7564 22.0576C46.1764 21.7404 46.5228 21.4618 46.8847 21.2174C52.9503 16.9778 59.2701 13.106 65.8076 9.62435C68.8577 8.02974 71.9568 6.53057 75.3324 5.73068C78.043 5.10507 79.5901 5.79399 80.9395 8.14698C81.755 9.60426 81.7177 9.61521 80.2169 10.3927C76.6981 12.2092 73.1961 14.0768 69.6861 15.9127C65.742 17.9801 61.7934 20.0379 57.8405 22.0857C56.1401 22.9705 54.4352 23.8453 52.7502 24.7642C52.4244 24.9638 52.1669 25.2555 52.0126 25.6002C51.5166 26.6511 51.1265 27.7369 50.7073 28.8653ZM23.3937 11.1757C23.8201 12.1174 24.5238 12.9083 25.4157 13.4485C26.3078 13.9886 27.3482 14.2539 28.4057 14.2106C29.4631 14.1675 30.4903 13.8178 31.3573 13.2058C32.2245 12.5938 32.8928 11.7469 33.2777 10.772C33.6627 9.79711 33.7471 8.73798 33.5205 7.72822C33.2938 6.71851 32.766 5.80347 32.0039 5.09868C31.242 4.39381 30.2796 3.93084 29.2385 3.76811C28.1975 3.60537 27.1244 3.75019 26.1547 4.18432C24.86 4.77467 23.8437 5.83702 23.3254 7.14163C22.8071 8.44628 22.8285 9.88836 23.385 11.1561L23.3937 11.1757Z"/>
<path d="M32.9436 107.267C33.3727 106.05 33.7596 104.906 34.1913 103.784C34.2481 103.701 34.3239 103.633 34.4126 103.587C34.5014 103.541 34.6002 103.518 34.7009 103.52C37.1402 103.819 39.5849 104.13 42.0347 104.453C42.1886 104.475 42.4447 104.609 42.4659 104.721C42.7016 105.968 42.8991 107.221 43.1232 108.558C39.7072 108.578 36.2861 108.144 32.9436 107.267Z"/>
<path d="M24.0855 99.3892C23.6718 100.668 23.2376 102.037 22.783 103.469C19.5522 101.492 16.5425 99.0932 13.8296 96.3324L16.9035 93.6805L24.0855 99.3892Z"/>
<path d="M72.0778 35.8614C71.0207 36.7474 70.0475 37.5889 69.0413 38.3977C68.947 38.4736 68.6502 38.3835 68.5133 38.2688C66.2659 36.4277 64.0286 34.5684 61.7737 32.6968L63.0266 28.6733C66.2928 30.6624 69.3353 33.0787 72.0778 35.8614Z"/>
<path d="M84.9137 64.5335C85.1582 68.3902 84.9437 72.2238 84.2749 75.9403L80.3701 74.2364C80.5379 71.2034 80.7133 68.1465 80.8935 65.0335L84.9137 64.5335Z"/>
<path d="M55.5919 106.24C55.4861 105.232 55.3735 104.295 55.3014 103.349C55.3162 103.272 55.3527 103.196 55.4075 103.129C55.4622 103.062 55.5335 103.006 55.6147 102.966C57.8568 102.177 60.035 101.201 62.1171 100.055C62.2086 100.03 62.3024 100.024 62.3903 100.039C62.4783 100.053 62.5578 100.086 62.622 100.136C63.2005 100.731 63.7285 101.363 64.3104 101.965C64.5168 102.19 64.4399 102.366 64.1379 102.502C62.5769 103.274 61.0249 104.079 59.4416 104.801C58.4058 105.265 57.3256 105.629 56.2625 106.032C56.0415 106.111 55.8177 106.181 55.5919 106.24Z"/>
<path d="M10.334 46.9397L6.97302 45.2822C8.15337 42.4216 9.68256 39.8176 11.5215 37.5363C12.0012 38.1767 12.4522 38.7639 12.8916 39.3682C13.2206 39.8232 13.7648 40.3384 13.8102 40.806C13.8554 41.2735 13.3397 41.619 13.0876 42.0148C12.2289 43.5155 11.3797 45.0199 10.5404 46.5281C10.4563 46.674 10.391 46.8298 10.334 46.9397Z"/>
<path d="M6.79769 87.5586C4.97933 84.8407 3.6434 81.8566 2.82731 78.6898C4.27292 78.3913 5.6512 78.0952 7.03307 77.8528C7.18627 77.8285 7.42185 78.1104 7.50645 78.2994C8.04803 79.6008 8.52486 80.9255 9.08922 82.2167C9.43382 82.9864 9.86392 83.7181 10.2862 84.4475C10.4121 84.7287 10.447 84.9289 10.1016 85.1499C9.04138 85.9123 7.97804 86.6982 6.79769 87.5586Z"/>
<path d="M0.998763 67.6717C0.7787 63.7671 1.0204 59.8856 1.71819 56.1198L4.49108 57.3416C5.76227 57.9063 5.69889 57.9009 5.58508 59.2814C5.40972 61.614 5.27478 63.9689 5.19827 66.3181C5.17829 66.9546 5.02026 67.1873 4.43169 67.2348C3.32058 67.3274 2.21923 67.51 0.998763 67.6717Z"/>
<path d="M73.1185 95.1299C72.2454 94.1123 71.4245 93.1808 70.6471 92.2115C70.5468 92.0925 70.6175 91.7391 70.7348 91.5651C72.4233 89.4009 74.1316 87.2459 75.8598 85.1002C75.9303 85.0231 76.0174 84.9604 76.1145 84.9169C76.2116 84.8735 76.3162 84.8503 76.4207 84.8491C77.6972 85.2187 78.9592 85.6311 80.3279 86.0564C78.3318 89.3295 75.9085 92.3794 73.1185 95.1299Z"/>
<path d="M79.1857 44.5058C79.7064 45.2909 80.1767 46.1046 80.5949 46.9441C81.4731 48.9057 82.2054 50.9272 83.0089 52.9224C83.1899 53.3268 83.0459 53.5141 82.4949 53.61C81.4262 53.7983 80.3483 54.0131 79.2955 54.2834C78.7478 54.417 78.5281 54.2811 78.3642 53.869C77.6571 52.1041 76.9017 50.3552 76.1636 48.5987C76.117 48.4635 76.0585 48.3329 75.9888 48.2081C75.4144 47.2488 75.4123 47.2442 76.4885 46.4555C77.3111 45.8249 78.1901 45.1971 79.1857 44.5058Z"/>
</mask>
<path d="M11.848 79.9912C8.17897 71.7529 7.92815 62.3943 11.1506 53.9648C14.3729 45.5354 20.8059 38.7218 29.041 35.0161C45.5465 27.6269 66.0559 34.3186 74.0184 52.1047C77.7102 60.3388 77.9755 69.704 74.756 78.1402C71.5364 86.5765 65.0958 93.3929 56.8508 97.0894C48.6059 100.786 39.2321 101.06 30.7917 97.852C22.3512 94.6436 15.5353 88.2152 11.8435 79.9812L11.848 79.9912ZM42.7635 64.2029C42.9145 63.8948 43.0317 63.6859 43.1159 63.4437C45.5831 57.5774 48.0453 51.709 50.5028 45.8389C50.9144 44.8697 51.2299 43.8626 51.4444 42.832C51.6284 42.0534 51.5227 41.2349 51.1468 40.529C50.771 39.8233 50.1509 39.2784 49.4021 38.9963C48.6707 38.6297 47.8327 38.5345 47.0371 38.7277C46.2416 38.9209 45.5401 39.39 45.0579 40.0512C44.4101 40.9613 43.8722 41.9449 43.4556 42.9812C40.6435 49.8519 37.8541 56.7244 35.0876 63.5987C35.0189 63.7678 34.9284 63.9285 34.8094 64.1742C33.0156 60.1672 31.2711 56.2704 29.5265 52.3735C29.2605 51.7719 28.9468 51.1927 28.5885 50.641C28.1083 49.7878 27.3147 49.1549 26.3753 48.8764C25.4359 48.5978 24.4247 48.6953 23.5554 49.1483C21.6545 49.9993 20.8627 51.6466 21.4056 53.7604C21.6331 54.6049 21.9297 55.4294 22.2924 56.2253C27.0581 66.8707 31.8231 77.5143 36.5873 88.1563C36.9517 89.0005 37.3941 89.8089 37.909 90.5709C39.0753 92.2615 40.6694 92.7021 42.5792 91.9253C44.4891 91.1485 45.3371 89.6806 45.0243 87.7582C44.8967 87.0041 44.6766 86.2686 44.3692 85.5683C42.4341 81.2458 40.499 76.9232 38.5638 72.6007L38.2387 71.8744L38.7796 72.0471C46.6931 74.8858 54.6059 77.7187 62.5183 80.5458C63.4642 80.8927 64.4517 81.1135 65.4554 81.2031C66.2622 81.2598 67.0656 81.052 67.7441 80.6116C68.4225 80.1713 68.939 79.5219 69.2154 78.7623C69.5118 78.0447 69.5616 77.2495 69.3573 76.501C69.153 75.7524 68.7059 75.0931 68.0862 74.6261C67.3084 74.0226 66.4487 73.5329 65.5325 73.1718C58.9468 70.5644 52.3768 67.9922 45.8024 65.4099C44.8421 65.04 43.8729 64.6502 42.7635 64.2029Z" fill="white" fill-opacity="0.05"/>
<path d="M50.7073 28.8653C43.496 27.5081 36.4727 27.1779 29.7111 30.6988C32.1754 28.287 35.1238 26.4078 38.3602 25.1865C37.0954 24.6417 36.6074 23.5786 36.0163 22.6498C34.5751 20.2528 32.2379 18.5118 29.4897 17.788C27.8448 17.3633 26.2394 16.8101 24.689 16.1336C21.3786 14.6233 19.6337 11.5892 20.0233 8.41066C20.1783 7.11873 20.6195 5.87013 21.3156 4.75299C22.0118 3.63584 22.9461 2.67726 24.0525 1.94497C27.9567 -0.778711 32.6124 0.14694 35.1793 4.0183C36.0717 5.34165 36.5231 6.91054 36.4724 8.5128C36.4173 10.2972 36.3116 12.0807 36.155 13.8635C35.9879 15.7843 36.4946 17.3211 38.2649 18.3333C39.8313 19.2547 41.3527 20.2373 42.8977 21.1917C43.2422 21.4079 43.5765 21.6284 44.0181 21.9129C43.3481 22.0538 42.7221 22.3584 42.1984 22.7985C41.6749 23.2385 41.2707 23.7995 41.024 24.429C41.7493 24.3218 42.3556 24.4208 42.914 23.9003C43.1434 23.6682 43.4167 23.4827 43.7179 23.3542C44.0191 23.2258 44.3423 23.1573 44.6682 23.1527C44.9943 23.148 45.3166 23.2073 45.6164 23.3271C45.9161 23.4469 46.1873 23.6247 46.414 23.8503C46.9252 24.3444 47.4949 24.254 48.193 24.2883C47.9842 23.7591 47.6572 23.2845 47.2359 22.8987C46.8145 22.513 46.3092 22.2256 45.7564 22.0576C46.1764 21.7404 46.5228 21.4618 46.8847 21.2174C52.9503 16.9778 59.2701 13.106 65.8076 9.62435C68.8577 8.02974 71.9568 6.53057 75.3324 5.73068C78.043 5.10507 79.5901 5.79399 80.9395 8.14698C81.755 9.60426 81.7177 9.61521 80.2169 10.3927C76.6981 12.2092 73.1961 14.0768 69.6861 15.9127C65.742 17.9801 61.7934 20.0379 57.8405 22.0857C56.1401 22.9705 54.4352 23.8453 52.7502 24.7642C52.4244 24.9638 52.1669 25.2555 52.0126 25.6002C51.5166 26.6511 51.1265 27.7369 50.7073 28.8653ZM23.3937 11.1757C23.8201 12.1174 24.5238 12.9083 25.4157 13.4485C26.3078 13.9886 27.3482 14.2539 28.4057 14.2106C29.4631 14.1675 30.4903 13.8178 31.3573 13.2058C32.2245 12.5938 32.8928 11.7469 33.2777 10.772C33.6627 9.79711 33.7471 8.73798 33.5205 7.72822C33.2938 6.71851 32.766 5.80347 32.0039 5.09868C31.242 4.39381 30.2796 3.93084 29.2385 3.76811C28.1975 3.60537 27.1244 3.75019 26.1547 4.18432C24.86 4.77467 23.8437 5.83702 23.3254 7.14163C22.8071 8.44628 22.8285 9.88836 23.385 11.1561L23.3937 11.1757Z" fill="white" fill-opacity="0.05"/>
<path d="M32.9436 107.267C33.3727 106.05 33.7596 104.906 34.1913 103.784C34.2481 103.701 34.3239 103.633 34.4126 103.587C34.5014 103.541 34.6002 103.518 34.7009 103.52C37.1402 103.819 39.5849 104.13 42.0347 104.453C42.1886 104.475 42.4447 104.609 42.4659 104.721C42.7016 105.968 42.8991 107.221 43.1232 108.558C39.7072 108.578 36.2861 108.144 32.9436 107.267Z" fill="white" fill-opacity="0.05"/>
<path d="M24.0855 99.3892C23.6718 100.668 23.2376 102.037 22.783 103.469C19.5522 101.492 16.5425 99.0932 13.8296 96.3324L16.9035 93.6805L24.0855 99.3892Z" fill="white" fill-opacity="0.05"/>
<path d="M72.0778 35.8614C71.0207 36.7474 70.0475 37.5889 69.0413 38.3977C68.947 38.4736 68.6502 38.3835 68.5133 38.2688C66.2659 36.4277 64.0286 34.5684 61.7737 32.6968L63.0266 28.6733C66.2928 30.6624 69.3353 33.0787 72.0778 35.8614Z" fill="white" fill-opacity="0.05"/>
<path d="M84.9137 64.5335C85.1582 68.3902 84.9437 72.2238 84.2749 75.9403L80.3701 74.2364C80.5379 71.2034 80.7133 68.1465 80.8935 65.0335L84.9137 64.5335Z" fill="white" fill-opacity="0.05"/>
<path d="M55.5919 106.24C55.4861 105.232 55.3735 104.295 55.3014 103.349C55.3162 103.272 55.3527 103.196 55.4075 103.129C55.4622 103.062 55.5335 103.006 55.6147 102.966C57.8568 102.177 60.035 101.201 62.1171 100.055C62.2086 100.03 62.3024 100.024 62.3903 100.039C62.4783 100.053 62.5578 100.086 62.622 100.136C63.2005 100.731 63.7285 101.363 64.3104 101.965C64.5168 102.19 64.4399 102.366 64.1379 102.502C62.5769 103.274 61.0249 104.079 59.4416 104.801C58.4058 105.265 57.3256 105.629 56.2625 106.032C56.0415 106.111 55.8177 106.181 55.5919 106.24Z" fill="white" fill-opacity="0.05"/>
<path d="M10.334 46.9397L6.97302 45.2822C8.15337 42.4216 9.68256 39.8176 11.5215 37.5363C12.0012 38.1767 12.4522 38.7639 12.8916 39.3682C13.2206 39.8232 13.7648 40.3384 13.8102 40.806C13.8554 41.2735 13.3397 41.619 13.0876 42.0148C12.2289 43.5155 11.3797 45.0199 10.5404 46.5281C10.4563 46.674 10.391 46.8298 10.334 46.9397Z" fill="white" fill-opacity="0.05"/>
<path d="M6.79769 87.5586C4.97933 84.8407 3.6434 81.8566 2.82731 78.6898C4.27292 78.3913 5.6512 78.0952 7.03307 77.8528C7.18627 77.8285 7.42185 78.1104 7.50645 78.2994C8.04803 79.6008 8.52486 80.9255 9.08922 82.2167C9.43382 82.9864 9.86392 83.7181 10.2862 84.4475C10.4121 84.7287 10.447 84.9289 10.1016 85.1499C9.04138 85.9123 7.97804 86.6982 6.79769 87.5586Z" fill="white" fill-opacity="0.05"/>
<path d="M0.998763 67.6717C0.7787 63.7671 1.0204 59.8856 1.71819 56.1198L4.49108 57.3416C5.76227 57.9063 5.69889 57.9009 5.58508 59.2814C5.40972 61.614 5.27478 63.9689 5.19827 66.3181C5.17829 66.9546 5.02026 67.1873 4.43169 67.2348C3.32058 67.3274 2.21923 67.51 0.998763 67.6717Z" fill="white" fill-opacity="0.05"/>
<path d="M73.1185 95.1299C72.2454 94.1123 71.4245 93.1808 70.6471 92.2115C70.5468 92.0925 70.6175 91.7391 70.7348 91.5651C72.4233 89.4009 74.1316 87.2459 75.8598 85.1002C75.9303 85.0231 76.0174 84.9604 76.1145 84.9169C76.2116 84.8735 76.3162 84.8503 76.4207 84.8491C77.6972 85.2187 78.9592 85.6311 80.3279 86.0564C78.3318 89.3295 75.9085 92.3794 73.1185 95.1299Z" fill="white" fill-opacity="0.05"/>
<path d="M79.1857 44.5058C79.7064 45.2909 80.1767 46.1046 80.5949 46.9441C81.4731 48.9057 82.2054 50.9272 83.0089 52.9224C83.1899 53.3268 83.0459 53.5141 82.4949 53.61C81.4262 53.7983 80.3483 54.0131 79.2955 54.2834C78.7478 54.417 78.5281 54.2811 78.3642 53.869C77.6571 52.1041 76.9017 50.3552 76.1636 48.5987C76.117 48.4635 76.0585 48.3329 75.9888 48.2081C75.4144 47.2488 75.4123 47.2442 76.4885 46.4555C77.3111 45.8249 78.1901 45.1971 79.1857 44.5058Z" fill="white" fill-opacity="0.05"/>
<path d="M11.848 79.9912C8.17897 71.7529 7.92815 62.3943 11.1506 53.9648C14.3729 45.5354 20.8059 38.7218 29.041 35.0161C45.5465 27.6269 66.0559 34.3186 74.0184 52.1047C77.7102 60.3388 77.9755 69.704 74.756 78.1402C71.5364 86.5765 65.0958 93.3929 56.8508 97.0894C48.6059 100.786 39.2321 101.06 30.7917 97.852C22.3512 94.6436 15.5353 88.2152 11.8435 79.9812L11.848 79.9912ZM42.7635 64.2029C42.9145 63.8948 43.0317 63.6859 43.1159 63.4437C45.5831 57.5774 48.0453 51.709 50.5028 45.8389C50.9144 44.8697 51.2299 43.8626 51.4444 42.832C51.6284 42.0534 51.5227 41.2349 51.1468 40.529C50.771 39.8233 50.1509 39.2784 49.4021 38.9963C48.6707 38.6297 47.8327 38.5345 47.0371 38.7277C46.2416 38.9209 45.5401 39.39 45.0579 40.0512C44.4101 40.9613 43.8722 41.9449 43.4556 42.9812C40.6435 49.8519 37.8541 56.7244 35.0876 63.5987C35.0189 63.7678 34.9284 63.9285 34.8094 64.1742C33.0156 60.1672 31.2711 56.2704 29.5265 52.3735C29.2605 51.7719 28.9468 51.1927 28.5885 50.641C28.1083 49.7878 27.3147 49.1549 26.3753 48.8764C25.4359 48.5978 24.4247 48.6953 23.5554 49.1483C21.6545 49.9993 20.8627 51.6466 21.4056 53.7604C21.6331 54.6049 21.9297 55.4294 22.2924 56.2253C27.0581 66.8707 31.8231 77.5143 36.5873 88.1563C36.9517 89.0005 37.3941 89.8089 37.909 90.5709C39.0753 92.2615 40.6694 92.7021 42.5792 91.9253C44.4891 91.1485 45.3371 89.6806 45.0243 87.7582C44.8967 87.0041 44.6766 86.2686 44.3692 85.5683C42.4341 81.2458 40.499 76.9232 38.5638 72.6007L38.2387 71.8744L38.7796 72.0471C46.6931 74.8858 54.6059 77.7187 62.5183 80.5458C63.4642 80.8927 64.4517 81.1135 65.4554 81.2031C66.2622 81.2598 67.0656 81.052 67.7441 80.6116C68.4225 80.1713 68.939 79.5219 69.2154 78.7623C69.5118 78.0447 69.5616 77.2495 69.3573 76.501C69.153 75.7524 68.7059 75.0931 68.0862 74.6261C67.3084 74.0226 66.4487 73.5329 65.5325 73.1718C58.9468 70.5644 52.3768 67.9922 45.8024 65.4099C44.8421 65.04 43.8729 64.6502 42.7635 64.2029Z" stroke="#0DC3A2" stroke-width="2" mask="url(#path-1-inside-1_304_3709)"/>
<path d="M50.7073 28.8653C43.496 27.5081 36.4727 27.1779 29.7111 30.6988C32.1754 28.287 35.1238 26.4078 38.3602 25.1865C37.0954 24.6417 36.6074 23.5786 36.0163 22.6498C34.5751 20.2528 32.2379 18.5118 29.4897 17.788C27.8448 17.3633 26.2394 16.8101 24.689 16.1336C21.3786 14.6233 19.6337 11.5892 20.0233 8.41066C20.1783 7.11873 20.6195 5.87013 21.3156 4.75299C22.0118 3.63584 22.9461 2.67726 24.0525 1.94497C27.9567 -0.778711 32.6124 0.14694 35.1793 4.0183C36.0717 5.34165 36.5231 6.91054 36.4724 8.5128C36.4173 10.2972 36.3116 12.0807 36.155 13.8635C35.9879 15.7843 36.4946 17.3211 38.2649 18.3333C39.8313 19.2547 41.3527 20.2373 42.8977 21.1917C43.2422 21.4079 43.5765 21.6284 44.0181 21.9129C43.3481 22.0538 42.7221 22.3584 42.1984 22.7985C41.6749 23.2385 41.2707 23.7995 41.024 24.429C41.7493 24.3218 42.3556 24.4208 42.914 23.9003C43.1434 23.6682 43.4167 23.4827 43.7179 23.3542C44.0191 23.2258 44.3423 23.1573 44.6682 23.1527C44.9943 23.148 45.3166 23.2073 45.6164 23.3271C45.9161 23.4469 46.1873 23.6247 46.414 23.8503C46.9252 24.3444 47.4949 24.254 48.193 24.2883C47.9842 23.7591 47.6572 23.2845 47.2359 22.8987C46.8145 22.513 46.3092 22.2256 45.7564 22.0576C46.1764 21.7404 46.5228 21.4618 46.8847 21.2174C52.9503 16.9778 59.2701 13.106 65.8076 9.62435C68.8577 8.02974 71.9568 6.53057 75.3324 5.73068C78.043 5.10507 79.5901 5.79399 80.9395 8.14698C81.755 9.60426 81.7177 9.61521 80.2169 10.3927C76.6981 12.2092 73.1961 14.0768 69.6861 15.9127C65.742 17.9801 61.7934 20.0379 57.8405 22.0857C56.1401 22.9705 54.4352 23.8453 52.7502 24.7642C52.4244 24.9638 52.1669 25.2555 52.0126 25.6002C51.5166 26.6511 51.1265 27.7369 50.7073 28.8653ZM23.3937 11.1757C23.8201 12.1174 24.5238 12.9083 25.4157 13.4485C26.3078 13.9886 27.3482 14.2539 28.4057 14.2106C29.4631 14.1675 30.4903 13.8178 31.3573 13.2058C32.2245 12.5938 32.8928 11.7469 33.2777 10.772C33.6627 9.79711 33.7471 8.73798 33.5205 7.72822C33.2938 6.71851 32.766 5.80347 32.0039 5.09868C31.242 4.39381 30.2796 3.93084 29.2385 3.76811C28.1975 3.60537 27.1244 3.75019 26.1547 4.18432C24.86 4.77467 23.8437 5.83702 23.3254 7.14163C22.8071 8.44628 22.8285 9.88836 23.385 11.1561L23.3937 11.1757Z" stroke="#0DC3A2" stroke-width="2" mask="url(#path-1-inside-1_304_3709)"/>
<path d="M32.9436 107.267C33.3727 106.05 33.7596 104.906 34.1913 103.784C34.2481 103.701 34.3239 103.633 34.4126 103.587C34.5014 103.541 34.6002 103.518 34.7009 103.52C37.1402 103.819 39.5849 104.13 42.0347 104.453C42.1886 104.475 42.4447 104.609 42.4659 104.721C42.7016 105.968 42.8991 107.221 43.1232 108.558C39.7072 108.578 36.2861 108.144 32.9436 107.267Z" stroke="#0DC3A2" stroke-width="2" mask="url(#path-1-inside-1_304_3709)"/>
<path d="M24.0855 99.3892C23.6718 100.668 23.2376 102.037 22.783 103.469C19.5522 101.492 16.5425 99.0932 13.8296 96.3324L16.9035 93.6805L24.0855 99.3892Z" stroke="#0DC3A2" stroke-width="2" mask="url(#path-1-inside-1_304_3709)"/>
<path d="M72.0778 35.8614C71.0207 36.7474 70.0475 37.5889 69.0413 38.3977C68.947 38.4736 68.6502 38.3835 68.5133 38.2688C66.2659 36.4277 64.0286 34.5684 61.7737 32.6968L63.0266 28.6733C66.2928 30.6624 69.3353 33.0787 72.0778 35.8614Z" stroke="#0DC3A2" stroke-width="2" mask="url(#path-1-inside-1_304_3709)"/>
<path d="M84.9137 64.5335C85.1582 68.3902 84.9437 72.2238 84.2749 75.9403L80.3701 74.2364C80.5379 71.2034 80.7133 68.1465 80.8935 65.0335L84.9137 64.5335Z" stroke="#0DC3A2" stroke-width="2" mask="url(#path-1-inside-1_304_3709)"/>
<path d="M55.5919 106.24C55.4861 105.232 55.3735 104.295 55.3014 103.349C55.3162 103.272 55.3527 103.196 55.4075 103.129C55.4622 103.062 55.5335 103.006 55.6147 102.966C57.8568 102.177 60.035 101.201 62.1171 100.055C62.2086 100.03 62.3024 100.024 62.3903 100.039C62.4783 100.053 62.5578 100.086 62.622 100.136C63.2005 100.731 63.7285 101.363 64.3104 101.965C64.5168 102.19 64.4399 102.366 64.1379 102.502C62.5769 103.274 61.0249 104.079 59.4416 104.801C58.4058 105.265 57.3256 105.629 56.2625 106.032C56.0415 106.111 55.8177 106.181 55.5919 106.24Z" stroke="#0DC3A2" stroke-width="2" mask="url(#path-1-inside-1_304_3709)"/>
<path d="M10.334 46.9397L6.97302 45.2822C8.15337 42.4216 9.68256 39.8176 11.5215 37.5363C12.0012 38.1767 12.4522 38.7639 12.8916 39.3682C13.2206 39.8232 13.7648 40.3384 13.8102 40.806C13.8554 41.2735 13.3397 41.619 13.0876 42.0148C12.2289 43.5155 11.3797 45.0199 10.5404 46.5281C10.4563 46.674 10.391 46.8298 10.334 46.9397Z" stroke="#0DC3A2" stroke-width="2" mask="url(#path-1-inside-1_304_3709)"/>
<path d="M6.79769 87.5586C4.97933 84.8407 3.6434 81.8566 2.82731 78.6898C4.27292 78.3913 5.6512 78.0952 7.03307 77.8528C7.18627 77.8285 7.42185 78.1104 7.50645 78.2994C8.04803 79.6008 8.52486 80.9255 9.08922 82.2167C9.43382 82.9864 9.86392 83.7181 10.2862 84.4475C10.4121 84.7287 10.447 84.9289 10.1016 85.1499C9.04138 85.9123 7.97804 86.6982 6.79769 87.5586Z" stroke="#0DC3A2" stroke-width="2" mask="url(#path-1-inside-1_304_3709)"/>
<path d="M0.998763 67.6717C0.7787 63.7671 1.0204 59.8856 1.71819 56.1198L4.49108 57.3416C5.76227 57.9063 5.69889 57.9009 5.58508 59.2814C5.40972 61.614 5.27478 63.9689 5.19827 66.3181C5.17829 66.9546 5.02026 67.1873 4.43169 67.2348C3.32058 67.3274 2.21923 67.51 0.998763 67.6717Z" stroke="#0DC3A2" stroke-width="2" mask="url(#path-1-inside-1_304_3709)"/>
<path d="M73.1185 95.1299C72.2454 94.1123 71.4245 93.1808 70.6471 92.2115C70.5468 92.0925 70.6175 91.7391 70.7348 91.5651C72.4233 89.4009 74.1316 87.2459 75.8598 85.1002C75.9303 85.0231 76.0174 84.9604 76.1145 84.9169C76.2116 84.8735 76.3162 84.8503 76.4207 84.8491C77.6972 85.2187 78.9592 85.6311 80.3279 86.0564C78.3318 89.3295 75.9085 92.3794 73.1185 95.1299Z" stroke="#0DC3A2" stroke-width="2" mask="url(#path-1-inside-1_304_3709)"/>
<path d="M79.1857 44.5058C79.7064 45.2909 80.1767 46.1046 80.5949 46.9441C81.4731 48.9057 82.2054 50.9272 83.0089 52.9224C83.1899 53.3268 83.0459 53.5141 82.4949 53.61C81.4262 53.7983 80.3483 54.0131 79.2955 54.2834C78.7478 54.417 78.5281 54.2811 78.3642 53.869C77.6571 52.1041 76.9017 50.3552 76.1636 48.5987C76.117 48.4635 76.0585 48.3329 75.9888 48.2081C75.4144 47.2488 75.4123 47.2442 76.4885 46.4555C77.3111 45.8249 78.1901 45.1971 79.1857 44.5058Z" stroke="#0DC3A2" stroke-width="2" mask="url(#path-1-inside-1_304_3709)"/>
</g>
<defs>
<filter id="filter0_b_304_3709" x="-49.08" y="-49.6184" width="184.091" height="208.177" filterUnits="userSpaceOnUse" color-interpolation-filters="sRGB">
<feFlood flood-opacity="0" result="BackgroundImageFix"/>
<feGaussianBlur in="BackgroundImageFix" stdDeviation="25"/>
<feComposite in2="SourceAlpha" operator="in" result="effect1_backgroundBlur_304_3709"/>
<feBlend mode="normal" in="SourceGraphic" in2="effect1_backgroundBlur_304_3709" result="shape"/>
</filter>
</defs>
</svg>
