<svg width="117" height="38" viewBox="0 0 117 38" fill="none" xmlns="http://www.w3.org/2000/svg">
<g clip-path="url(#clip0_0_6511)">
<path d="M107.668 0.404846H9.33109C4.39718 0.404846 0.397461 4.47689 0.397461 9.5V28.4993C0.397461 33.5224 4.39718 37.5944 9.33109 37.5944H107.668C112.602 37.5944 116.601 33.5224 116.601 28.4993V9.5C116.601 4.47689 112.602 0.404846 107.668 0.404846Z" fill="black"/>
<path d="M41.5732 24.6247L40.5317 27.8372H39.1916L42.6011 17.6217H44.1644L47.5876 27.8372H46.2023L45.1313 24.6247H41.5732ZM44.8629 23.5943L43.8802 20.6537C43.6577 19.9872 43.5084 19.3807 43.3591 18.7902H43.3304C43.1804 19.3968 43.0174 20.0179 42.8236 20.6391L41.841 23.5943H44.8629ZM48.586 22.8972C48.5842 22.0983 48.5643 21.2996 48.5265 20.5017H49.7029L49.7625 21.7594H49.7919C50.0518 21.3077 50.4273 20.9365 50.8785 20.6855C51.3296 20.4345 51.8393 20.3131 52.353 20.3344C54.0944 20.3344 55.4051 21.8346 55.4051 24.0627C55.4051 26.7001 53.8266 28.0038 52.1298 28.0038C51.6939 28.0231 51.2605 27.9271 50.8718 27.7253C50.4831 27.5235 50.1524 27.2226 49.9118 26.8521H49.8817V30.837H48.5868L48.586 22.8972ZM49.8809 24.8527C49.8845 25.0361 49.9039 25.2181 49.9405 25.3986C50.0497 25.8449 50.3026 26.2411 50.6588 26.524C51.015 26.8069 51.454 26.9603 51.9058 26.9595C53.2905 26.9595 54.0937 25.8078 54.0937 24.1249C54.0937 22.6553 53.335 21.3969 51.9503 21.3969C51.487 21.4098 51.041 21.5791 50.6826 21.8782C50.3241 22.1773 50.0734 22.5892 49.9699 23.0492C49.9174 23.2265 49.8875 23.41 49.8809 23.5951V24.8527ZM56.4014 22.8972C56.4014 21.9574 56.3719 21.1996 56.3418 20.5017H57.519L57.5785 21.7594H57.608C57.8676 21.3075 58.2432 20.9362 58.6943 20.6852C59.1455 20.4341 59.6553 20.3129 60.169 20.3344C61.9104 20.3344 63.2204 21.8346 63.2204 24.0627C63.2204 26.7008 61.6427 28.0038 59.9451 28.0038C59.5092 28.0231 59.0758 27.9272 58.6871 27.7254C58.2984 27.5236 57.9677 27.2227 57.7271 26.8521H57.6977V30.837H56.4014V22.8972ZM57.697 24.8527C57.7006 25.0361 57.7199 25.2181 57.7565 25.3986C57.8656 25.8448 58.1184 26.241 58.4745 26.524C58.8305 26.8069 59.2694 26.9602 59.7211 26.9595C61.1065 26.9595 61.9104 25.8078 61.9104 24.1249C61.9104 22.6553 61.1503 21.3969 59.7664 21.3969C59.303 21.4095 58.8569 21.5788 58.4983 21.8779C58.1398 22.177 57.8892 22.5891 57.786 23.0492C57.7334 23.2265 57.7035 23.41 57.697 23.5951V24.8527ZM72.1669 27.3834C71.178 27.7453 70.1363 27.9348 69.0854 27.9439C67.5673 27.9439 66.3169 27.55 65.3343 26.5949C64.4693 25.7464 63.9346 24.3821 63.9346 22.7912C63.9496 19.7439 66.004 17.5165 69.3683 17.5165C70.225 17.4956 71.0768 17.6556 71.8698 17.9864L71.5575 19.0621C70.8588 18.7516 70.1016 18.6015 69.3395 18.6222C66.8983 18.6222 65.3056 20.1677 65.3056 22.7291C65.3056 25.3204 66.8388 26.8521 69.1759 26.8521C70.025 26.8521 70.605 26.7293 70.9029 26.5788V23.5344H68.8637V22.4726H72.1684L72.1669 27.3834ZM77.8246 27.8372L77.7205 26.9127H77.676C77.4199 27.2594 77.0866 27.5391 76.7034 27.7288C76.3203 27.9185 75.8983 28.0128 75.4724 28.0038C74.0138 28.0038 73.2687 26.9588 73.2687 25.897C73.2687 24.1241 74.817 23.1537 77.6013 23.169V23.0177C77.6013 22.4112 77.4377 21.3202 75.964 21.3202C75.3011 21.3224 74.6517 21.5114 74.0877 21.8661L73.7899 20.9855C74.5039 20.5479 75.3238 20.3221 76.1571 20.3336C78.3607 20.3336 78.8962 21.8646 78.8962 23.3349V26.0782C78.8869 26.6665 78.9271 27.2547 79.0168 27.8364L77.8246 27.8372ZM77.6315 24.0942C76.2016 24.0642 74.5794 24.3222 74.5794 25.7464C74.5661 25.9159 74.5887 26.0863 74.6458 26.2461C74.7029 26.4058 74.7931 26.5512 74.9103 26.6723C75.0278 26.7931 75.1694 26.8866 75.3257 26.9465C75.4819 27.0064 75.6489 27.0313 75.8155 27.0194C76.1962 27.0299 76.5704 26.9166 76.8835 26.6958C77.1967 26.475 77.4325 26.1583 77.5568 25.7917C77.6028 25.6558 77.6279 25.5126 77.6315 25.3679V24.0942ZM80.222 17.0773H81.532V27.8372H80.222V17.0773ZM83.7349 17.0773H85.0455V27.8372H83.7349V17.0773ZM87.5915 24.4128C87.621 26.2163 88.7522 26.9588 90.0622 26.9588C90.7462 26.981 91.4267 26.8518 92.0569 26.5802L92.2809 27.5346C91.5224 27.8565 90.7056 28.0116 89.8842 27.9899C87.6655 27.9899 86.3404 26.5042 86.3404 24.2922C86.3404 22.0787 87.621 20.3358 89.7198 20.3358C92.0734 20.3358 92.6979 22.4426 92.6979 23.7916C92.6953 23.9994 92.6804 24.2068 92.6534 24.4128H87.5915ZM91.4332 23.4577C91.4482 22.6092 91.0908 21.2909 89.6172 21.2909C88.2921 21.2909 87.7114 22.5332 87.6073 23.4577H91.4332ZM93.9332 22.7912C93.9332 21.9274 93.9182 21.1842 93.8737 20.5024H95.02L95.0645 21.9421H95.124C95.4521 20.957 96.2409 20.3358 97.1188 20.3358C97.2444 20.3344 97.3696 20.3497 97.4913 20.3811V21.6388C97.3447 21.6064 97.1949 21.5912 97.0449 21.5935C96.1218 21.5935 95.4664 22.306 95.2877 23.3064C95.2511 23.511 95.231 23.7193 95.2281 23.9276V27.8394H93.9332V22.7912ZM100.171 20.5032L101.749 24.8381C101.913 25.3226 102.091 25.8984 102.211 26.3384H102.24C102.374 25.8977 102.523 25.3372 102.702 24.8074L104.131 20.5032H105.516L103.55 25.7318C102.612 28.2479 101.972 29.5362 101.079 30.324C100.626 30.7494 100.071 31.0471 99.4703 31.1877L99.143 30.0667C99.5624 29.9258 99.9514 29.7045 100.289 29.4149C100.765 29.0136 101.142 28.5049 101.391 27.9292C101.443 27.8306 101.479 27.7232 101.495 27.6121C101.483 27.4919 101.453 27.3743 101.405 27.2635L98.7417 20.5032H100.171ZM43.1086 9.74624C43.1086 11.5607 42.0247 12.5232 40.704 12.5232C39.3351 12.5232 38.374 11.4438 38.374 9.84855C38.374 8.17363 39.3962 7.07894 40.7786 7.07894C42.1941 7.07821 43.1086 8.1824 43.1086 9.74624ZM39.0897 9.83247C39.0897 10.9586 39.6905 11.9678 40.742 11.9678C41.8022 11.9678 42.4016 10.9739 42.4016 9.77767C42.4016 8.72901 41.8632 7.63432 40.7492 7.63432C39.6438 7.63359 39.0911 8.67421 39.0911 9.83174L39.0897 9.83247ZM44.8987 7.74321H43.3239V7.16371H47.1591V7.74321H45.5742V12.4355H44.898L44.8987 7.74321ZM48.3951 7.16371V9.5029H48.6033L50.3776 7.16444H51.1844L49.2249 9.58109C50.0776 9.69801 50.4085 10.2307 50.677 10.9425C50.8385 11.4511 51.0287 11.9495 51.2462 12.4355H50.5234C50.3383 12.0328 50.1816 11.6171 50.0546 11.1917C49.8163 10.4953 49.4862 10.0181 48.6104 10.0181H48.3944V12.4355H47.7355V7.16371H48.3951ZM51.8994 7.22728C52.3234 7.15715 52.7525 7.12293 53.1821 7.12497C53.8432 7.12497 54.3277 7.28136 54.6349 7.56344C54.7847 7.70269 54.9029 7.87359 54.9811 8.06419C55.0594 8.25479 55.0958 8.46049 55.0878 8.6669C55.0978 8.87204 55.0676 9.07715 54.9991 9.27033C54.9306 9.46352 54.8251 9.64093 54.6887 9.79228C54.4768 9.99252 54.2272 10.1471 53.9551 10.2467C53.683 10.3462 53.3939 10.3888 53.1053 10.3718C52.9248 10.3775 52.7444 10.3616 52.5676 10.3243V12.4362H51.8994V7.22582V7.22728ZM52.5676 9.7689C52.7492 9.81055 52.9344 9.82882 53.1203 9.82371C53.9271 9.82371 54.4188 9.42544 54.4188 8.69759C54.4188 8.00117 53.935 7.66501 53.1971 7.66501C52.9857 7.659 52.7743 7.67739 52.5669 7.71982L52.5676 9.7689ZM60.3514 9.74624C60.3514 11.5607 59.2675 12.5232 57.9468 12.5232C56.5779 12.5232 55.6168 11.4438 55.6168 9.84855C55.6168 8.17363 56.6389 7.07894 58.0214 7.07894C59.4369 7.07821 60.3514 8.1824 60.3514 9.74624ZM56.3317 9.83174C56.3317 10.9579 56.9325 11.9671 57.9841 11.9671C59.0443 11.9671 59.6436 10.9732 59.6436 9.77694C59.6436 8.72901 59.1053 7.63359 57.9913 7.63359C56.8859 7.63359 56.3317 8.67421 56.3317 9.83174ZM61.8501 7.16444V9.38597C61.8501 10.2227 61.8343 10.9111 61.7884 11.6148L61.8035 11.6229C62.0647 11.0755 62.3877 10.5048 62.7646 9.87851L64.4392 7.16517H65.1082V12.4355H64.4779V10.192C64.4779 9.33921 64.4851 8.71294 64.539 8.04794L64.5153 8.04063C64.2321 8.65249 63.9113 9.24558 63.5549 9.8164L61.9341 12.4355H61.2199V7.16444H61.8501ZM62.695 6.06097C62.7258 6.30359 62.8026 6.54621 63.1637 6.54621C63.5175 6.54621 63.6015 6.31967 63.6324 6.06097H64.1478C64.109 6.57763 63.8011 6.89844 63.1486 6.89844C62.5184 6.89844 62.2191 6.57763 62.1803 6.06097H62.695ZM67.2594 7.74321H65.6853V7.16371H69.519V7.74321H67.9363V12.4355H67.2601L67.2594 7.74321ZM72.7763 9.96474H70.7636V11.8647H73.0067V12.4355H70.0954V7.16371H72.8919V7.73517H70.7636V9.40132H72.7763V9.96474ZM75.5047 7.23459C75.9076 7.15876 76.3166 7.12206 76.7263 7.12497C77.3946 7.12497 77.8253 7.2419 78.1483 7.50863C78.2886 7.61664 78.401 7.75774 78.4759 7.91979C78.5508 8.08184 78.5859 8.25998 78.5782 8.4389C78.5697 8.70108 78.4805 8.95392 78.3233 9.16173C78.166 9.36955 77.9486 9.52186 77.7018 9.59717V9.61251C78.0018 9.67485 78.2717 9.8403 78.4662 10.0811C78.6606 10.3219 78.7678 10.6235 78.7699 10.9352C78.7733 11.1325 78.7362 11.3283 78.6607 11.51C78.5853 11.6918 78.4734 11.8554 78.332 11.9904C77.9717 12.3266 77.3874 12.4837 76.5419 12.4837C76.1951 12.4864 75.8486 12.4654 75.5047 12.4209V7.23459ZM76.1729 9.39328H76.7802C77.4872 9.39328 77.9021 9.0184 77.9021 8.50905C77.9021 7.89155 77.4405 7.64894 76.7651 7.64894C76.5667 7.64379 76.3682 7.65946 76.1729 7.69571V9.39328ZM76.1729 11.9203C76.3588 11.9459 76.5469 11.9568 76.7342 11.9517C77.4255 11.9517 78.0629 11.693 78.0629 10.9264C78.0629 10.2074 77.4563 9.90994 76.7263 9.90994H76.1744L76.1729 11.9203Z" fill="white"/>
<path d="M25.1398 6.96643H14.8022C13.0383 6.96662 11.3468 7.68011 10.0997 8.94996C8.85249 10.2198 8.15186 11.942 8.15186 13.7377V24.2623C8.15186 26.058 8.85249 27.7802 10.0997 29.0501C11.3468 30.3199 13.0383 31.0334 14.8022 31.0336H25.1398C26.0133 31.0336 26.8782 30.8584 27.6852 30.5181C28.4922 30.1777 29.2255 29.6789 29.8431 29.0501C30.4607 28.4212 30.9506 27.6747 31.2848 26.853C31.619 26.0314 31.791 25.1508 31.7909 24.2615V13.7385C31.7909 11.9426 31.0901 10.2203 29.8428 8.95043C28.5955 7.68057 26.9038 6.96716 25.1398 6.96716V6.96643Z" fill="#C8102E"/>
<path d="M12.8336 19.0022H13.4602V22.1489H12.8336V20.8708H11.4174V22.1489H10.79V19.0022H11.4174V20.2716H12.8336V19.0022ZM16.3666 20.8036C16.3666 21.3151 16.1182 21.5884 15.6646 21.5884C15.2109 21.5884 14.9575 21.3071 14.9575 20.7816V19.0037H14.3309V20.8021C14.3309 21.6871 14.814 22.1957 15.6559 22.1957C16.5058 22.1957 16.9939 21.6783 16.9939 20.7772V19.0015H16.3666V20.8036ZM23.6141 21.166L22.9121 19.0022H22.3996L21.6983 21.1653L21.0164 19.0037H20.3474L21.4248 22.1482H21.9438L22.6472 20.0823L23.3492 22.1482H23.8732L24.947 19.0037H24.2974L23.6141 21.166ZM26.0725 20.7941H27.2138V20.2219H26.0725V19.5773H27.7285V19.0044H25.4531V22.1467H27.7873V21.5731H26.0718V20.7941H26.0725ZM28.536 22.1445H29.1555V19.0029H28.536V22.1452V22.1445ZM18.2343 21.4912L17.9536 22.1467H17.3105L18.6721 19.0022H19.2248L20.5814 22.1467H19.9239L19.6462 21.4912H18.2343ZM18.4683 20.9241H19.4157L18.9406 19.7987L18.4683 20.9241ZM19.9713 14.9954C18.9283 14.994 17.9284 14.5716 17.1909 13.8208C16.4533 13.0699 16.0384 12.0519 16.0371 10.9901H16.5927C16.5927 11.9024 16.9487 12.7774 17.5824 13.4226C18.216 14.0677 19.0755 14.4301 19.9717 14.4301C20.8678 14.4301 21.7273 14.0677 22.361 13.4226C22.9947 12.7774 23.3507 11.9024 23.3507 10.9901H23.9062C23.9049 12.052 23.4899 13.0701 22.7522 13.821C22.0145 14.5719 21.0144 14.9942 19.9713 14.9954Z" fill="white"/>
</g>
<defs>
<clipPath id="clip0_0_6511">
<rect width="117" height="38" fill="white"/>
</clipPath>
</defs>
</svg>
