<svg width="117" height="38" viewBox="0 0 117 38" fill="none" xmlns="http://www.w3.org/2000/svg">
<g clip-path="url(#clip0_0_6517)">
<path d="M107.668 0.404846H9.33109C4.39718 0.404846 0.397461 4.47689 0.397461 9.5V28.4993C0.397461 33.5224 4.39718 37.5944 9.33109 37.5944H107.668C112.602 37.5944 116.601 33.5224 116.601 28.4993V9.5C116.601 4.47689 112.602 0.404846 107.668 0.404846Z" fill="black"/>
<path fill-rule="evenodd" clip-rule="evenodd" d="M28.5647 18.7479C28.5432 16.2852 30.515 15.0875 30.6047 15.0319C29.4885 13.3475 27.7565 13.1173 27.1485 13.099C25.695 12.9419 24.2845 13.9994 23.5438 13.9994C22.7894 13.9994 21.6488 13.1159 20.4192 13.1414C18.8386 13.1663 17.3578 14.1141 16.5467 15.5837C14.8714 18.5805 16.1204 22.9856 17.7246 25.4081C18.5271 26.5956 19.4653 27.9205 20.6927 27.873C21.8943 27.8226 22.3429 27.0823 23.7921 27.0823C25.2291 27.0823 25.6498 27.873 26.9016 27.8445C28.1907 27.8226 29.0026 26.6512 29.7771 25.4534C30.7059 24.0942 31.0777 22.7547 31.0928 22.686C31.0619 22.675 28.5891 21.7002 28.5647 18.7479ZM26.1989 11.506C26.8449 10.6714 27.2863 9.53508 27.165 8.3812C26.2297 8.42505 25.0605 9.04985 24.3872 9.86759C23.7907 10.5874 23.2581 11.7676 23.3959 12.8762C24.446 12.9573 25.5256 12.3281 26.1989 11.5067V11.506ZM40.0738 23.4833H43.3218L41.7204 18.6083H41.6759L40.0731 23.484L40.0738 23.4833ZM43.7474 24.8703H39.6488L38.664 27.8745H36.9277L40.811 16.7587H42.614L46.4959 27.8745H44.7308L43.7474 24.8703ZM53.2273 23.8231C53.2273 22.1818 52.4076 21.1032 51.155 21.1032C49.9248 21.1032 49.0979 22.2037 49.0979 23.8231C49.0979 25.4556 49.9255 26.5496 51.155 26.5496C52.4076 26.5496 53.2273 25.479 53.2273 23.8231ZM54.8818 23.8231C54.8818 26.3406 53.5769 27.9592 51.6087 27.9592C50.4925 27.9592 49.6046 27.4433 49.1431 26.5415H49.105V30.5557H47.4965V19.7702H49.0541V21.1192H49.0835C49.5307 20.2496 50.4846 19.6862 51.58 19.6862C53.5697 19.6862 54.8811 21.3114 54.8811 23.8238L54.8818 23.8231ZM61.8552 23.8231C61.8552 22.1818 61.0362 21.1032 59.7836 21.1032C58.554 21.1032 57.7271 22.2037 57.7271 23.8231C57.7271 25.4556 58.554 26.5496 59.7836 26.5496C61.0362 26.5496 61.8552 25.479 61.8552 23.8231ZM63.5104 23.8231C63.5104 26.3406 62.2062 27.9592 60.238 27.9592C59.1218 27.9592 58.2339 27.4433 57.7716 26.5415H57.7343V30.5557H56.1243V19.7702H57.6819V21.1192H57.7121C58.1585 20.2496 59.1132 19.6862 60.2085 19.6862C62.1983 19.6862 63.509 21.3114 63.509 23.8238L63.5104 23.8231ZM69.2132 24.7775C69.3324 25.8795 70.3689 26.6029 71.7844 26.6029C73.1403 26.6029 74.1158 25.8795 74.1158 24.8856C74.1158 24.0233 73.5272 23.5059 72.1339 23.153L70.7407 22.8051C68.7661 22.3119 67.8494 21.3582 67.8494 19.8082C67.8494 17.8907 69.4659 16.5731 71.7614 16.5731C74.0339 16.5731 75.5915 17.8907 75.6447 19.8082H74.0203C73.922 18.6997 73.0355 18.0303 71.7384 18.0303C70.4428 18.0303 69.5563 18.7077 69.5563 19.6928C69.5563 20.4784 70.1227 20.9417 71.5087 21.2954L72.6938 21.5957C74.8989 22.1357 75.8155 23.0514 75.8155 24.6781C75.8155 26.7579 74.2134 28.0594 71.6652 28.0594C69.28 28.0594 67.67 26.7878 67.5666 24.7775H69.2132ZM79.2889 17.8527V19.7702H80.7805V21.0871H79.2889V25.555C79.2889 26.2492 79.5875 26.573 80.2435 26.573C80.4072 26.573 80.6685 26.5496 80.7726 26.5342V27.8445C80.5938 27.8905 80.2364 27.9205 79.8782 27.9205C78.2919 27.9205 77.6724 27.3052 77.6724 25.7333V21.0871H76.5318V19.7702H77.6724V17.8527H79.2889ZM87.4408 23.8231C87.4408 22.0736 86.6649 21.0418 85.3621 21.0418C84.0579 21.0418 83.2834 22.0817 83.2834 23.8231C83.2834 25.5791 84.0579 26.6029 85.3621 26.6029C86.6649 26.6029 87.4408 25.5791 87.4408 23.8231ZM81.644 23.8231C81.644 21.2727 83.0953 19.6701 85.3621 19.6701C87.6346 19.6701 89.0817 21.2727 89.0817 23.8231C89.0817 26.3793 87.6418 27.9753 85.3621 27.9753C83.0817 27.9753 81.644 26.3793 81.644 23.8231ZM90.4075 19.7695H91.9428V21.1499H91.9794C92.2264 20.2328 92.9413 19.6855 93.8658 19.6855C94.0969 19.6855 94.2893 19.7162 94.4171 19.7476V21.3034C94.2893 21.2493 94.0065 21.2033 93.6942 21.2033C92.6578 21.2033 92.016 21.9275 92.016 23.0675V27.8752H90.4075V19.7695ZM96.3967 23.0748H100.316C100.279 21.8339 99.5112 21.0184 98.3929 21.0184C97.2825 21.0184 96.4793 21.8515 96.3967 23.0748ZM101.836 25.4936C101.619 26.9654 100.234 27.9753 98.4611 27.9753C96.1799 27.9753 94.7645 26.3954 94.7645 23.8611C94.7645 21.3195 96.1879 19.6701 98.3936 19.6701C100.563 19.6701 101.927 21.2106 101.927 23.6674V24.2382H96.3888V24.3383C96.3888 25.7245 97.2308 26.6351 98.4977 26.6351C99.3921 26.6351 100.093 26.1952 100.309 25.4936H101.836ZM38.9289 10.6488H39.6209C40.1937 10.6488 40.5942 10.3009 40.5942 9.79743C40.5942 9.30562 40.2353 8.98701 39.628 8.98701C39.0251 8.98701 38.6303 9.30197 38.5858 9.82447H37.8271C37.8795 8.86132 38.575 8.26208 39.6524 8.26208C40.6695 8.26208 41.3859 8.85035 41.3859 9.69805C41.3886 9.98122 41.2967 10.2569 41.1253 10.48C40.9558 10.7018 40.7162 10.8572 40.447 10.9199V10.982C41.1167 11.0529 41.5969 11.5301 41.5969 12.274C41.5969 13.1875 40.7586 13.862 39.6675 13.862C38.5435 13.862 37.7725 13.2328 37.7259 12.2813H38.4961C38.5435 12.7929 38.9971 13.1217 39.6661 13.1217C40.3365 13.1217 40.7736 12.7519 40.7736 12.2302C40.7736 11.7004 40.3616 11.3744 39.6417 11.3744H38.9289V10.6488ZM44.9785 12.2477V11.9115L44.0252 11.9744C43.4883 12.0109 43.2457 12.2002 43.2457 12.5546C43.2457 12.9193 43.55 13.129 43.9685 13.129C44.5485 13.129 44.9785 12.7483 44.9785 12.2477ZM42.4712 12.5934C42.4712 11.867 42.9952 11.449 43.9219 11.389L44.9777 11.3262V10.9784C44.9777 10.553 44.7071 10.3119 44.1796 10.3119C43.7503 10.3119 43.4531 10.4756 43.367 10.7606H42.6227C42.7016 10.0678 43.3333 9.62351 44.2176 9.62351C45.1938 9.62351 45.7465 10.127 45.7465 10.9784V13.7319H45.0036V13.1663H44.9433C44.71 13.5697 44.2836 13.7991 43.7711 13.7991C43.0196 13.7991 42.4712 13.33 42.4712 12.5934ZM47.7872 10.3718V13.7334H47.0177V9.7017H49.5852V10.3711L47.7872 10.3718ZM53.4577 11.715C53.4577 10.8636 53.068 10.3499 52.4155 10.3499C51.768 10.3499 51.3625 10.8746 51.3625 11.7186C51.3625 12.559 51.768 13.0852 52.4119 13.0852C53.068 13.0852 53.4577 12.57 53.4577 11.715ZM54.2487 11.715C54.2487 12.996 53.6221 13.7991 52.6387 13.7991C52.0824 13.7991 51.641 13.5477 51.4379 13.1217H51.3776V15.0729H50.6074V9.7017H51.3474V10.3682H51.4063C51.6417 9.90851 52.1004 9.63447 52.6308 9.63447C53.6214 9.63447 54.2487 10.4339 54.2487 11.715ZM55.2744 15.1759V14.4912C55.334 14.5036 55.4539 14.5058 55.5257 14.5058C55.891 14.5058 56.097 14.3516 56.2298 13.9438L56.2873 13.7472L54.8768 9.7017H55.7145L56.6921 12.9039H56.7531L57.7271 9.7017H58.5426L57.0897 13.8992C56.7567 14.8799 56.3877 15.1956 55.5924 15.1956C55.486 15.1943 55.3796 15.188 55.2737 15.1766L55.2744 15.1759ZM59.1434 12.589H59.9085C59.9839 12.9441 60.3055 13.1297 60.7569 13.1297C61.2687 13.1297 61.5831 12.8959 61.5831 12.5334C61.5831 12.1447 61.301 11.959 60.7562 11.959H60.1727V11.3408H60.7469C61.212 11.3408 61.4482 11.1559 61.4482 10.819C61.4482 10.5238 61.2185 10.2973 60.7462 10.2973C60.3155 10.2973 60.0011 10.4858 59.9523 10.8044H59.2101C59.2891 10.0868 59.8647 9.62351 60.7462 9.62351C61.6736 9.62351 62.2033 10.0569 62.2033 10.7387C62.2033 11.1406 61.9564 11.4709 61.5874 11.563V11.6265C62.0928 11.7493 62.3504 12.0855 62.3504 12.5327C62.3504 13.3 61.7202 13.8064 60.7562 13.8064C59.9049 13.8064 59.213 13.403 59.1426 12.589H59.1434ZM63.4594 13.7326V9.7017H64.2224V12.4742H64.2835L66.0794 9.70243H66.8431V13.7326H66.0794V10.9455H66.0227L64.2224 13.7326H63.4594ZM71.0443 10.3711H69.8169V13.7326H69.0467V10.3711H67.8186V9.70243H71.045L71.0443 10.3711ZM72.4835 11.3452H74.4517C74.4337 10.7124 74.0619 10.3002 73.4934 10.3002C72.9228 10.3002 72.5259 10.716 72.4835 11.3452ZM75.1903 12.6445C75.0144 13.3665 74.3907 13.8108 73.5006 13.8108C72.383 13.8108 71.699 13.0187 71.699 11.7303C71.699 10.442 72.3966 9.62351 73.4963 9.62351C74.5816 9.62351 75.2369 10.3908 75.2369 11.6558V11.9335H72.4835V11.978C72.5072 12.6854 72.9048 13.1327 73.5214 13.1327C73.9873 13.1327 74.3053 12.9595 74.4488 12.6445H75.1903ZM79.2157 11.9415V13.1217H80.128C80.5823 13.1217 80.8264 12.9142 80.8264 12.5342C80.8264 12.13 80.5508 11.9415 80.0311 11.9415H79.2157ZM79.2157 10.3126V11.3562H79.978C80.4438 11.3562 80.6663 11.1705 80.6663 10.83C80.6663 10.5158 80.4718 10.3126 80.0634 10.3126H79.2157ZM78.4527 9.70243H80.2105C80.9728 9.70243 81.4207 10.1014 81.4207 10.727C81.4207 11.134 81.1422 11.5038 80.7625 11.579V11.6404C81.2671 11.7004 81.5959 12.0811 81.5959 12.57C81.5959 13.2737 81.0841 13.7319 80.2285 13.7319H78.4527V9.70243Z" fill="#FFFFFE"/>
</g>
<defs>
<clipPath id="clip0_0_6517">
<rect width="117" height="38" fill="white"/>
</clipPath>
</defs>
</svg>
