<svg width="126" height="38" viewBox="0 0 126 38" fill="none" xmlns="http://www.w3.org/2000/svg">
<g clip-path="url(#clip0_0_6521)">
<path d="M116.586 0.404846H9.41399C4.43645 0.404846 0.401367 4.47689 0.401367 9.5V28.4993C0.401367 33.5224 4.43645 37.5944 9.41399 37.5944H116.586C121.563 37.5944 125.598 33.5224 125.598 28.4993V9.5C125.598 4.47689 121.563 0.404846 116.586 0.404846Z" fill="black"/>
<path fill-rule="evenodd" clip-rule="evenodd" d="M100.104 28.3363H101.82V16.6308H100.104V28.3363ZM115.572 20.8474L113.604 25.9226H113.545L111.501 20.8474H109.652L112.716 27.9402L110.969 31.8864H112.759L117.482 20.8474H115.572ZM105.831 27.007C105.27 27.007 104.485 26.7206 104.485 26.0132C104.485 25.1099 105.462 24.7636 106.307 24.7636C107.06 24.7636 107.417 24.9294 107.874 25.1552C107.741 26.239 106.824 27.007 105.831 27.007ZM106.039 20.5923C104.796 20.5923 103.508 21.1499 102.975 22.3849L104.5 23.0309C104.826 22.3849 105.432 22.173 106.069 22.173C106.957 22.173 107.86 22.7152 107.874 23.6784V23.7989C107.564 23.6184 106.897 23.3481 106.083 23.3481C104.44 23.3481 102.767 24.2659 102.767 25.9825C102.767 27.5492 104.115 28.5584 105.625 28.5584C106.779 28.5584 107.417 28.0316 107.815 27.4141H107.874V28.3166H109.533V23.8296C109.533 21.7513 108.007 20.5923 106.039 20.5923ZM95.4249 22.2731H92.9824V18.2612H95.4249C96.7088 18.2612 97.4373 19.3427 97.4373 20.2664C97.4373 21.1733 96.7088 22.2731 95.4249 22.2731ZM95.38 16.6316H91.2662V28.3363H92.9824V23.902H95.3807C97.2837 23.902 99.1549 22.5004 99.1549 20.2664C99.1549 18.0332 97.2837 16.6316 95.3807 16.6316H95.38ZM72.9404 27.0107C71.7535 27.0107 70.7607 25.9993 70.7607 24.6116C70.7607 23.2085 71.7543 22.1825 72.9404 22.1825C74.1106 22.1825 75.031 23.2077 75.031 24.6123C75.031 25.9986 74.1106 27.0107 72.9404 27.0107ZM74.9122 21.5036H74.8528C74.4676 21.0366 73.7254 20.6135 72.7927 20.6135C70.8346 20.6135 69.0416 22.3644 69.0416 24.6108C69.0416 26.8433 70.8346 28.5789 72.7927 28.5789C73.7254 28.5789 74.4676 28.1572 74.8528 27.6742H74.9122V28.2464C74.9122 29.7708 74.1106 30.5849 72.8216 30.5849C71.7687 30.5849 71.1163 29.8154 70.8491 29.1672L69.3523 29.8007C69.781 30.856 70.9222 32.1538 72.8216 32.1538C74.8384 32.1538 76.5437 30.9466 76.5437 28.006V20.8539H74.9122V21.5036ZM77.7306 28.3363H79.4504V16.6316H77.7306V28.3363ZM81.9849 24.4756C81.9407 22.9366 83.1565 22.1525 84.0327 22.1525C84.7142 22.1525 85.2927 22.4996 85.4861 22.9973L81.9849 24.4756ZM87.324 23.1478C86.9974 22.2585 86.0038 20.6135 83.9726 20.6135C81.9566 20.6135 80.2803 22.2285 80.2803 24.5962C80.2803 26.8287 81.9407 28.5789 84.1653 28.5789C85.9589 28.5789 86.9974 27.463 87.4282 26.8141L86.0936 25.9079C85.6476 26.5722 85.04 27.0099 84.1653 27.0099C83.2905 27.0099 82.6677 26.6022 82.268 25.8027L87.5021 23.6002L87.3232 23.1478H87.324ZM45.6208 21.8361V23.5256H49.5956C49.4769 24.4756 49.1648 25.1699 48.6905 25.6522C48.1119 26.2412 47.2067 26.8894 45.6208 26.8894C43.174 26.8894 41.2615 24.8827 41.2615 22.3944C41.2615 19.9054 43.174 17.8987 45.6208 17.8987C46.9409 17.8987 47.9048 18.4271 48.6166 19.1059L49.7883 17.9141C48.794 16.9487 47.4754 16.2084 45.6208 16.2084C42.2703 16.2084 39.4526 18.9854 39.4526 22.3944C39.4526 25.8027 42.2703 28.5789 45.6208 28.5789C47.4297 28.5789 48.794 27.9746 49.8614 26.8433C50.9592 25.7282 51.3003 24.1592 51.3003 22.8913C51.3043 22.5375 51.2744 22.1841 51.2112 21.8361H45.6208ZM55.8182 27.0107C54.6327 27.0107 53.6095 26.0139 53.6095 24.5962C53.6095 23.1624 54.6327 22.1825 55.8182 22.1825C57.0043 22.1825 58.0282 23.1624 58.0282 24.5962C58.0282 26.0139 57.0043 27.0107 55.8182 27.0107ZM55.8182 20.6128C53.653 20.6128 51.8883 22.2884 51.8883 24.5962C51.8883 26.8908 53.6523 28.5789 55.8182 28.5789C57.9833 28.5789 59.7473 26.8894 59.7473 24.5962C59.7473 22.2884 57.9833 20.6128 55.8182 20.6128ZM64.3905 27.0107C63.2036 27.0107 62.1804 26.0139 62.1804 24.5962C62.1804 23.1624 63.2036 22.1825 64.3905 22.1825C65.5774 22.1825 66.5998 23.1624 66.5998 24.5962C66.5998 26.0139 65.5766 27.0107 64.3905 27.0107ZM64.3905 20.6128C62.2253 20.6128 60.4606 22.2884 60.4606 24.5962C60.4606 26.8908 62.2261 28.5789 64.3905 28.5789C66.5557 28.5789 68.3204 26.8894 68.3204 24.5962C68.3204 22.2884 66.5564 20.6128 64.3905 20.6128Z" fill="white"/>
<mask id="mask0_0_6521" style="mask-type:alpha" maskUnits="userSpaceOnUse" x="10" y="7" width="13" height="24">
<path d="M11.28 7.30405C11.0121 7.59343 10.855 8.03993 10.855 8.61943V29.3294C10.855 29.9097 11.0136 30.3569 11.28 30.6448L11.3481 30.712L22.7526 19.1111V18.8378L11.3481 7.23608L11.28 7.30405Z" fill="white"/>
</mask>
<g mask="url(#mask0_0_6521)">
<path d="M11.28 7.30405C11.0121 7.59343 10.855 8.03993 10.855 8.61943V29.3294C10.855 29.9097 11.0136 30.3569 11.28 30.6448L11.3481 30.712L22.7526 19.1111V18.8378L11.3481 7.23608L11.28 7.30405Z" fill="#00C7FF"/>
</g>
<mask id="mask1_0_6521" style="mask-type:alpha" maskUnits="userSpaceOnUse" x="22" y="14" width="11" height="9">
<path d="M22.7524 18.837V19.1111L26.5527 22.979L26.6396 22.9301L31.143 20.3278C32.4291 19.5824 32.4291 18.3657 31.143 17.6232L26.6396 15.0187L26.5542 14.9691L22.7524 18.837Z" fill="white"/>
</mask>
<g mask="url(#mask1_0_6521)">
<path fill-rule="evenodd" clip-rule="evenodd" d="M22.7524 18.837V19.1111L26.5527 22.979L26.6396 22.9301L31.143 20.3278C32.4291 19.5824 32.4291 18.3657 31.143 17.6232L26.6396 15.0187L26.5542 14.9691L22.7524 18.837Z" fill="#FFCE00"/>
</g>
<mask id="mask2_0_6521" style="mask-type:alpha" maskUnits="userSpaceOnUse" x="11" y="18" width="16" height="14">
<path d="M11.2808 30.6441C11.7044 31.1001 12.4053 31.1571 13.1939 30.7025L26.6397 22.9301L22.7526 18.9737L11.2808 30.6441Z" fill="white"/>
</mask>
<g mask="url(#mask2_0_6521)">
<path fill-rule="evenodd" clip-rule="evenodd" d="M11.2808 30.6441C11.7044 31.1001 12.4053 31.1571 13.1939 30.7025L26.6397 22.9301L22.7526 18.9737L11.2808 30.6441Z" fill="url(#paint0_linear_0_6521)"/>
</g>
<mask id="mask3_0_6521" style="mask-type:alpha" maskUnits="userSpaceOnUse" x="11" y="6" width="16" height="13">
<path d="M11.2815 7.30476L22.7518 18.9751L26.6397 15.0202L13.1954 7.24849C12.8239 7.03438 12.4734 6.93207 12.1628 6.93207C11.8079 6.93207 11.506 7.06214 11.2808 7.30476" fill="white"/>
</mask>
<g mask="url(#mask3_0_6521)">
<path d="M11.2815 7.30476L22.7518 18.9751L26.6397 15.0202L13.1954 7.24849C12.8239 7.03438 12.4734 6.93207 12.1628 6.93207C11.8079 6.93207 11.506 7.06214 11.2808 7.30476" fill="#00F076"/>
</g>
<path fill-rule="evenodd" clip-rule="evenodd" d="M13.1939 7.38371L31.1424 17.7584C31.7261 18.0946 32.0534 18.5301 32.1077 18.9737C32.1077 18.4841 31.7862 17.9937 31.1424 17.6218L13.1939 7.24705C11.9079 6.50386 10.855 7.12136 10.855 8.62017V8.75609C10.855 7.25801 11.9079 6.64051 13.1939 7.38371ZM43.7359 8.26209C43.7359 7.99317 43.6353 7.77905 43.4361 7.61901C43.2363 7.46117 42.9654 7.38151 42.6222 7.38151C42.3296 7.38151 42.0827 7.46117 41.8872 7.61755C41.7931 7.68827 41.7172 7.78071 41.6658 7.88713C41.6144 7.99355 41.589 8.11085 41.5917 8.22921H40.5714C40.5714 7.90255 40.6605 7.61244 40.8394 7.35667C41.0175 7.10163 41.263 6.90359 41.5794 6.76182C41.9084 6.61813 42.2637 6.54593 42.6222 6.5499C43.2956 6.5499 43.8206 6.70044 44.195 6.99859C44.5672 7.29821 44.7541 7.71621 44.7541 8.25405C44.7541 8.52517 44.6744 8.77509 44.5122 9.00309C44.3368 9.24047 44.1018 9.42638 43.8315 9.54167C44.1617 9.65713 44.4123 9.83178 44.5868 10.0671C44.7606 10.3002 44.8475 10.5932 44.8475 10.9418C44.8475 11.4782 44.6447 11.9057 44.2406 12.2229C43.8351 12.5393 43.2964 12.6979 42.6229 12.6979C42.2355 12.7035 41.8512 12.6263 41.4954 12.4713C41.1609 12.3201 40.9089 12.1154 40.7401 11.8538C40.5691 11.5871 40.4809 11.2748 40.4867 10.9572H41.5056C41.5056 11.2159 41.6113 11.4322 41.822 11.6097C42.032 11.7866 42.2985 11.875 42.6222 11.875C42.9843 11.875 43.2754 11.7881 43.494 11.6163C43.7149 11.4431 43.825 11.2181 43.825 10.9411C43.825 10.6035 43.7279 10.3587 43.5346 10.2067C43.342 10.0547 43.0596 9.97867 42.6874 9.97867H41.9958V9.15582H42.6511C43.3731 9.15582 43.7352 8.85767 43.7352 8.26136L43.7359 8.26209ZM47.1003 10.385H48.807L47.954 7.90036L47.1003 10.385ZM49.0953 11.2246H46.8128L46.3348 12.6197H45.2733L47.4964 6.62809H48.4146L50.6442 12.6189H49.5746L49.0945 11.2239L49.0953 11.2246ZM55.0766 7.46848H52.3589V12.6197H51.3386V6.62809H55.0774V7.46701L55.0766 7.46848ZM56.9493 9.55848H58.1788C58.5438 9.55848 58.8204 9.47078 59.0131 9.29686C59.2035 9.12294 59.2998 8.87082 59.2998 8.54198C59.2998 8.21825 59.202 7.95955 59.0087 7.7659C58.8139 7.57298 58.5474 7.47359 58.2071 7.46774H56.9493V9.55848ZM56.9493 10.3974V12.6189H55.9261V6.62809H58.1781C58.8371 6.62809 59.3592 6.80348 59.7459 7.15205C60.1333 7.50063 60.3266 7.96175 60.3266 8.5354C60.3266 9.1244 60.1369 9.5804 59.7589 9.90705C59.3795 10.2344 58.8479 10.3967 58.1665 10.3967H56.9485L56.9493 10.3974ZM63.3412 9.75944L64.5216 6.62882H65.6577L63.6084 11.5981L63.4223 11.9737C63.1522 12.4618 62.7156 12.7059 62.1116 12.7059L61.6916 12.6811L61.6989 11.8582C61.7633 11.8692 61.877 11.875 62.0428 11.875C62.3339 11.875 62.5382 11.7486 62.6584 11.4965L62.8684 10.9908L60.8531 6.62882H61.9697L63.3412 9.75944ZM69.3827 8.26209C69.3827 7.99317 69.2828 7.77905 69.0829 7.61901C68.8838 7.46117 68.6122 7.38151 68.2697 7.38151C67.9764 7.38151 67.7302 7.46117 67.5347 7.61755C67.4406 7.68827 67.3647 7.78071 67.3133 7.88713C67.2619 7.99355 67.2365 8.11085 67.2393 8.22921H66.2182C66.2182 7.90255 66.308 7.61244 66.4862 7.35667C66.6743 7.09356 66.9306 6.88777 67.2269 6.76182C67.556 6.61815 67.9112 6.54595 68.2697 6.5499C68.9432 6.5499 69.4682 6.70044 69.8425 6.99859C70.2147 7.29821 70.4016 7.71621 70.4016 8.25405C70.4016 8.52517 70.3212 8.77509 70.1597 9.00309C69.9843 9.24047 69.7493 9.42638 69.479 9.54167C69.8092 9.65713 70.0598 9.83178 70.2343 10.0671C70.4081 10.3002 70.495 10.5932 70.495 10.9418C70.495 11.4782 70.2922 11.9057 69.8882 12.2229C69.4826 12.5393 68.9439 12.6979 68.2704 12.6979C67.883 12.7035 67.4987 12.6263 67.1429 12.4713C66.8077 12.3201 66.5564 12.1154 66.3877 11.8538C66.2166 11.5871 66.1284 11.2748 66.1342 10.9572H67.1531C67.1531 11.2159 67.2588 11.4322 67.4695 11.6097C67.6795 11.7866 67.946 11.875 68.2697 11.875C68.6318 11.875 68.9222 11.7881 69.1416 11.6163C69.3624 11.4431 69.4725 11.2181 69.4725 10.9411C69.4725 10.6035 69.3755 10.3587 69.1821 10.2067C68.9895 10.0547 68.7071 9.97867 68.3349 9.97867H67.6426V9.15582H68.2987C69.0206 9.15582 69.3827 8.8584 69.3827 8.26209ZM75.0549 6.62809H76.0766V12.6197H75.0549V8.35198L72.469 12.6197H71.4472V6.62809H72.4697V10.9002L75.0549 6.62809ZM81.4403 7.46848H79.6046V12.6197H78.5894V7.46774H76.7682V6.62882H81.441L81.4403 7.46774V7.46848ZM85.6555 9.94505H83.2355V11.7888H86.0632V12.6197H82.2137V6.62809H86.035V7.46701H83.2355V9.12221H85.6563L85.6555 9.94505ZM89.9823 9.91582V11.7888H91.1192C91.4407 11.7888 91.6912 11.7069 91.8723 11.5454C92.0533 11.3832 92.1438 11.1581 92.1438 10.8717C92.1438 10.2476 91.8303 9.92971 91.2053 9.91655L89.9823 9.91582ZM89.9823 9.15144H90.9859C91.3045 9.15144 91.5529 9.07763 91.7325 8.93074C91.9114 8.78459 92.0012 8.57632 92.0012 8.3074C92.0012 8.01071 91.9193 7.79732 91.7528 7.66432C91.5877 7.53425 91.3284 7.46774 90.9787 7.46774H89.9823V9.15144ZM88.9605 12.6197V6.62809H90.9794C91.6441 6.62809 92.1503 6.76401 92.4986 7.03513C92.8462 7.30698 93.0207 7.71182 93.0207 8.24821C93.0207 8.52371 92.9483 8.76998 92.802 8.98921C92.6565 9.2099 92.4443 9.37944 92.1634 9.50001C92.4813 9.58771 92.7275 9.75359 92.9013 9.99475C93.0751 10.2381 93.1627 10.5297 93.1627 10.8709C93.1627 11.4322 92.9853 11.8648 92.6304 12.1666C92.2749 12.4677 91.7673 12.6189 91.1083 12.6189L88.9605 12.6197Z" fill="white"/>
</g>
<defs>
<linearGradient id="paint0_linear_0_6521" x1="24.5267" y1="22.6948" x2="7.54557" y2="39.3864" gradientUnits="userSpaceOnUse">
<stop stop-color="#FF3A44"/>
<stop offset="1" stop-color="#C31162"/>
</linearGradient>
<clipPath id="clip0_0_6521">
<rect width="126" height="38" fill="white"/>
</clipPath>
</defs>
</svg>
